<svg id="Layer_1" data-name="Layer 1" xmlns="http://www.w3.org/2000/svg" xmlns:xlink="http://www.w3.org/1999/xlink" width="67.68" height="66.39" viewBox="0 0 67.68 66.39">
  <defs>
    <style>
      .cls-1 {
        fill: #fff;
      }

      .cls-2 {
        mask: url(#mask);
      }

      .cls-3 {
        fill: #8e8e8e;
      }

      .cls-4 {
        mask: url(#mask-2-2);
      }

      .cls-5 {
        fill: #c4c4c4;
      }

      .cls-6 {
        fill: #7a7a7a;
      }

      .cls-7 {
        fill: #585858;
      }
    </style>
    <mask id="mask" x="0" y="0" width="67.68" height="66.39" maskUnits="userSpaceOnUse">
      <g transform="translate(0 -0.36)">
        <g id="mask-2">
          <polygon id="path-1" class="cls-1" points="0 0.36 0 66.76 67.68 66.76 67.68 0.36 0 0.36"/>
        </g>
      </g>
    </mask>
    <mask id="mask-2-2" x="16.5" y="26.13" width="37.33" height="40.26" maskUnits="userSpaceOnUse">
      <g transform="translate(0 -0.36)">
        <g id="mask-4">
          <polygon id="path-3" class="cls-1" points="53.83 66.76 16.5 66.76 16.5 26.5 53.83 26.5 53.83 66.76"/>
        </g>
      </g>
    </mask>
  </defs>
  <title>action</title>
  <g id="Page-1">
    <g id="Filter-Feature">
      <g id="Genres">
        <g id="Action">
          <g id="Group-3">
            <g class="cls-2">
              <path id="Fill-1" class="cls-3" d="M33.92.36h-.08C15.15.36,0,15.23,0,33.56s15,33,33.55,33.19h.29c18.69,0,33.84-14.86,33.84-33.2S52.58.41,33.92.36" transform="translate(0 -0.36)"/>
            </g>
          </g>
          <g id="Group-6">
            <g class="cls-4">
              <path id="Fill-4" class="cls-5" d="M48.2,41.36a7,7,0,0,0,0-2.08s-1.39-3.17-4.16-4-5.45,1.27-5.45,1.27a12.17,12.17,0,0,0-.46-4c-.18-.54-1.76-1.9-4.29-2.36a5.71,5.71,0,0,0-4.49,1.36v-.91c0-3.81-2.22-4.17-5.73-4.17s-3,9.61-3,9.61c-1.11-.54-6.56,9.15-3,12.69,7.58,5.44,7.48,7.43,7.48,7.43v9.44a34.49,34.49,0,0,0,8.35,1.09h.29a34.25,34.25,0,0,0,14.43-3.16c-.3-1.51.76-6.46,3.07-10.27S54.67,43.44,53,41.45s-4.8-.09-4.8-.09" transform="translate(0 -0.36)"/>
            </g>
          </g>
          <path id="Fill-7" class="cls-6" d="M20.67,36.07c.14.51.3,1,.47,1.52s.35,1,.54,1.48.41,1,.64,1.44.49.93.75,1.4a7,7,0,0,1-1-1.27,8.85,8.85,0,0,1-.73-1.44,8.7,8.7,0,0,1-.67-3.13" transform="translate(0 -0.36)"/>
          <path id="Fill-9" class="cls-6" d="M38.62,36.19A19.23,19.23,0,0,1,39,39.68c0,.58,0,1.17,0,1.75a7.57,7.57,0,0,1-.3,1.74c0-.59,0-1.16-.06-1.74s0-1.16-.05-1.74a29.82,29.82,0,0,1,.11-3.49" transform="translate(0 -0.36)"/>
          <path id="Fill-11" class="cls-6" d="M29.41,31.21c0,1.36,0,2.71,0,4.06l0,2a15.24,15.24,0,0,0,.07,2,7.13,7.13,0,0,1-.4-2c-.05-.68-.06-1.36,0-2a23.59,23.59,0,0,1,.44-4.06" transform="translate(0 -0.36)"/>
          <path id="Fill-13" class="cls-6" d="M48.2,41a20.06,20.06,0,0,1,.14,3.73,14.73,14.73,0,0,1-.21,1.86,6.4,6.4,0,0,1-.23.92l-.08.22-.1.22a1.53,1.53,0,0,1-.26.39,2.62,2.62,0,0,0,.27-.88A4.12,4.12,0,0,0,47.8,47c0-.15,0-.3.05-.46.06-.61.09-1.23.12-1.84l.1-1.85q0-.93.13-1.86" transform="translate(0 -0.36)"/>
          <path id="Fill-15" class="cls-7" d="M13.25,22.65c1.56-1.44,3.17-2.82,4.82-4.15q1.24-1,2.53-2c.43-.32.87-.63,1.32-.93.22-.15.45-.3.7-.45a8,8,0,0,1,.8-.42l.32-.15.39.22,2.52,1.42c.85.47,1.68,1,2.52,1.43l2.52,1.41,1.26.68.62.32.29.14.11,0h-.21l-.72.26,3.25-2.79c1.08-.93,2.18-1.84,3.27-2.76l1-.87.64,1.18c.13.25.34.56.53.84s.4.57.62.84a19.28,19.28,0,0,0,1.38,1.57,15.31,15.31,0,0,0,3.31,2.56A14.44,14.44,0,0,0,49,22a14,14,0,0,0,2,.6,14.76,14.76,0,0,0,4.27.27l.46,0,.13.36c.21.59.41,1.18.6,1.78s.37,1.19.53,1.8.3,1.21.41,1.83a8.94,8.94,0,0,1,.1.94,1.67,1.67,0,0,1-.14.92,1.71,1.71,0,0,0,0-.9,8.57,8.57,0,0,0-.26-.88c-.2-.58-.43-1.15-.67-1.72s-.49-1.13-.75-1.69-.53-1.12-.8-1.66l.59.33a15.54,15.54,0,0,1-4.69.14,15.68,15.68,0,0,1-2.32-.52,16.29,16.29,0,0,1-2.21-.89,17.66,17.66,0,0,1-5.48-4.44c-.25-.3-.49-.61-.72-.94s-.44-.63-.67-1l1.68.31c-1.09.93-2.17,1.86-3.26,2.77L34.44,22.1l-.33.28-.39,0-.22,0-.11,0-.08,0-.15-.06-.22-.1-.36-.18-.66-.36c-.43-.24-.85-.5-1.27-.75L28.17,19.3c-.82-.51-1.64-1-2.45-1.56l-2.43-1.6.71.07a11.3,11.3,0,0,0-1.31.63c-.45.24-.91.51-1.36.77-.9.53-1.79,1.1-2.69,1.66L15.95,21Z" transform="translate(0 -0.36)"/>
        </g>
      </g>
    </g>
  </g>
</svg>
