<?xml version="1.0" encoding="UTF-8"?>
<svg width="68px" height="67px" viewBox="0 0 68 67" version="1.1" xmlns="http://www.w3.org/2000/svg" xmlns:xlink="http://www.w3.org/1999/xlink">
    <!-- Generator: Sketch 42 (36781) - http://www.bohemiancoding.com/sketch -->
    <title>Action</title>
    <desc>Created with Sketch.</desc>
    <defs>
        <polygon id="path-1" points="0 0.312647938 0 66.7059608 67.6813978 66.7059608 67.6813978 0.312647938 2.50427132e-21 0.312647938"></polygon>
        <polygon id="path-3" points="37.5674838 40.6036283 0.237368286 40.6036283 0.237368286 0.343789471 37.5674838 0.343789471 37.5674838 40.6036283"></polygon>
    </defs>
    <g id="Page-1" stroke="none" stroke-width="1" fill="none" fill-rule="evenodd">
        <g id="Filter-Feature" transform="translate(-21.000000, -234.000000)">
            <g id="Genres" transform="translate(19.000000, 141.000000)">
                <g id="Action" transform="translate(2.000000, 93.000000)">
                    <g id="Group-3" transform="translate(0.000000, 0.050029)">
                        <mask id="mask-2" fill="white">
                            <use xlink:href="#path-1"></use>
                        </mask>
                        <g id="Clip-2"></g>
                        <path d="M33.923463,0.313373003 C33.8957457,0.313373003 33.8683978,0.312647938 33.8406804,0.312647938 C15.1510283,0.312647938 -3.69565218e-05,15.175026 -3.69565218e-05,33.5090143 C-3.69565218e-05,51.7476566 14.993963,66.5484042 33.549463,66.7024804 C33.6466587,66.7032055 33.7434848,66.7061058 33.8406804,66.7061058 C52.5307022,66.7061058 67.6813978,51.8433652 67.6813978,33.5090143 C67.6813978,15.2022159 52.57505,0.357239422 33.923463,0.313373003" id="Fill-1" fill="#F97200" mask="url(#mask-2)"></path>
                    </g>
                    <g id="Group-6" transform="translate(16.260870, 26.152362)">
                        <mask id="mask-4" fill="white">
                            <use xlink:href="#path-3"></use>
                        </mask>
                        <g id="Clip-5"></g>
                        <path d="M31.9415587,15.2076177 C32.1263413,14.3012867 31.9415587,13.1230564 31.9415587,13.1230564 C31.9415587,13.1230564 30.5556891,9.95089795 27.78395,9.13520006 C25.0122109,8.31950217 22.332863,10.4040634 22.332863,10.4040634 C22.4252543,8.59140147 22.0556891,6.96000569 21.8709065,6.41620709 C21.6861239,5.8724085 20.1154717,4.51291202 17.5798848,4.05974652 C15.0442978,3.60658103 13.0937326,5.41924301 13.0937326,5.41924301 L13.0937326,4.51291202 C13.0937326,0.706321866 10.8763413,0.343789471 7.36547174,0.343789471 C3.85460217,0.343789471 4.40895,9.95089795 4.40895,9.95089795 C3.30025435,9.40709936 -2.15083261,19.1048409 1.45242826,22.6395318 C9.02851522,28.0775177 8.93464565,30.0714459 8.93464565,30.0714459 L8.93464565,39.5074391 C11.6047543,40.1977008 14.4034717,40.5761846 17.2886674,40.6001117 C17.385863,40.6008368 17.4823196,40.603737 17.5798848,40.603737 C22.7416022,40.603737 27.6320587,39.4682856 32.0095587,37.4406419 C31.7087326,35.9277942 32.77345,30.9770518 35.082863,27.1711867 C37.3926457,23.3645966 38.40895,17.292179 36.7459065,15.2982508 C35.082863,13.3043226 31.9415587,15.2076177 31.9415587,15.2076177" id="Fill-4" fill="#E6C565" mask="url(#mask-4)"></path>
                    </g>
                    <path d="M20.6698196,36.0719371 C20.8132109,36.5867331 20.9747109,37.089203 21.1380587,37.5891352 C21.3051022,38.0876172 21.4832326,38.5806613 21.6827978,39.0650045 C21.8731239,39.5529732 22.0922761,40.0293407 22.3239935,40.5006328 C22.5516457,40.9751877 22.8132978,41.4323411 23.0719935,41.9036332 C22.6987326,41.5175362 22.3472761,41.0998989 22.0712109,40.636945 C21.7814717,40.1816043 21.5408848,39.6968985 21.3394717,39.1984165 C20.9432978,38.2010898 20.67795,37.1435829 20.6698196,36.0719371" id="Fill-7" fill="#92793E"></path>
                    <path d="M38.6179971,36.193893 C38.8601224,37.3514589 38.9430038,38.5162755 38.9714069,39.6821797 C38.9760632,40.2651318 38.9686132,40.8488089 38.9225162,41.4324861 C38.8768849,42.0147131 38.8014536,42.6023781 38.6179971,43.1726416 C38.6212565,42.5871518 38.5737627,42.0089126 38.5593283,41.4281357 C38.5313908,40.8477213 38.5188189,40.267307 38.5057814,39.6865301 C38.4927438,38.5246138 38.4941407,37.3623349 38.6179971,36.193893" id="Fill-9" fill="#92793E"></path>
                    <path d="M29.4085409,31.2090726 C29.4572518,32.5703817 29.4160995,33.9219025 29.3841855,35.2730607 L29.338414,37.2970791 C29.338414,37.9717519 29.3186777,38.644612 29.4085409,39.3207349 C29.1578477,38.6718019 29.065045,37.9833529 29.0108752,37.3054173 C28.9571252,36.6253065 28.9516662,35.9444707 28.9646838,35.265085 C29.0100353,33.9063136 29.1280333,32.5504424 29.4085409,31.2090726" id="Fill-11" fill="#92793E"></path>
                    <path d="M48.2024283,40.9974472 C48.3757543,42.2347703 48.3994065,43.4815192 48.3410152,44.7260929 C48.3018413,45.3481985 48.2515804,45.9713917 48.13295,46.5884218 C48.07345,46.8965744 48.0109935,47.2047269 47.9056674,47.5045412 L47.8276891,47.7278611 L47.7253196,47.9446555 C47.671363,48.0929313 47.5579065,48.2180049 47.4632978,48.3387282 C47.6048413,48.0574031 47.6931674,47.7699149 47.7301239,47.4613998 C47.7600587,47.311674 47.7829717,47.1608605 47.7962761,47.0067842 C47.8132761,46.8541581 47.838037,46.7037071 47.8472761,46.5496309 C47.906037,45.9384012 47.9396674,45.3228212 47.9721891,44.7072412 L48.0701239,42.8557883 C48.101537,42.2376706 48.1462543,41.6188278 48.2024283,40.9974472" id="Fill-13" fill="#92793E"></path>
                    <path d="M13.2485804,22.6539968 C14.8048196,21.2114804 16.4183413,19.8353075 18.071037,18.4997381 C18.895537,17.8276031 19.7366674,17.177945 20.60145,16.545326 C21.0360587,16.2299228 21.4669717,15.913432 21.924863,15.6121676 C22.1469717,15.4580913 22.3797978,15.3072778 22.6274065,15.1669778 C22.8550587,15.0208772 23.1470152,14.8849276 23.4252978,14.7504281 L23.7431239,14.5967143 L24.1352326,14.8178591 L26.6601022,16.2415238 C27.5064065,16.7088281 28.3405152,17.1946215 29.1794283,17.6709891 C30.0176022,18.1480817 30.8576239,18.6211865 31.6987543,19.0841403 L32.9556457,19.7664263 L33.5713413,20.0908928 L33.858863,20.2308303 C33.8939717,20.2453316 33.9582761,20.2768719 33.9686239,20.278322 L33.9926457,20.288473 C34.0037326,20.2928233 33.9797109,20.28376 33.9571674,20.2772344 C33.9361022,20.2710714 33.9142978,20.2659959 33.8921239,20.2623706 C33.8481457,20.2543949 33.8030587,20.2518572 33.7590804,20.2540324 L33.0380587,20.5096177 L36.2854283,17.720656 C37.369363,16.7925731 38.4669717,15.8797165 39.5594065,14.9614219 L40.5941891,14.0917067 L41.2387109,15.2677618 C41.3736022,15.5139213 41.5753848,15.8300496 41.7646022,16.1066618 C41.9586239,16.3919748 42.1652109,16.6722123 42.381037,16.9455617 C42.814537,17.491173 43.2713196,18.0226455 43.7635804,18.5200399 C44.7469935,19.5148288 45.8590152,20.3849066 47.0748848,21.0755308 C47.6802326,21.425012 48.31145,21.7313519 48.9641022,21.9905625 C49.6211891,22.2363595 50.2960152,22.4444531 50.9885804,22.5901911 C52.3711239,22.8881928 53.8153848,22.9770132 55.2611239,22.8620904 L55.7182761,22.8254747 L55.8494717,23.1898197 C56.06345,23.7847354 56.2582109,24.3738505 56.4492761,24.9694912 C56.6359065,25.565132 56.8240152,26.1600476 56.9784935,26.7662018 C57.1351891,27.3716309 57.2796891,27.9810478 57.3879717,28.5984405 C57.4363848,28.9087682 57.477037,29.2209086 57.4925587,29.5359493 C57.49995,29.8441018 57.51695,30.1841572 57.3499065,30.4585942 C57.4533848,30.1631303 57.3735587,29.8535277 57.3159065,29.5587888 C57.2467978,29.2618748 57.1536674,28.9693112 57.0527761,28.6803728 C56.8554283,28.0999585 56.6237109,27.529695 56.3797978,26.964507 C56.13145,26.4007691 55.8890152,25.8352186 55.6266239,25.2772812 C55.3671891,24.720069 55.097037,24.1614065 54.8231891,23.6179705 L55.411537,23.9456998 C53.884863,24.2125236 52.2949935,24.2908306 50.7210152,24.0838246 C49.9353196,23.9750649 49.1592326,23.7952488 48.39645,23.567941 C47.6381022,23.3272195 46.8974935,23.0303055 46.1827543,22.6815493 C44.7651022,21.9601098 43.4701457,21.027314 42.3171022,19.9582059 C41.74095,19.4227456 41.1976891,18.8535697 40.701363,18.2448778 C40.4511674,17.9418008 40.2113196,17.630748 39.98145,17.3088192 C39.7475152,16.9781896 39.53945,16.6772878 39.3095804,16.2799523 L40.9888848,16.5862921 C39.9034717,17.5121999 38.8224935,18.4442707 37.7282109,19.36039 L34.4412978,22.1043977 L34.1068413,22.3831851 L33.7199065,22.3599831 C33.646363,22.3556327 33.5717109,22.3465694 33.4977978,22.3324306 L33.3884065,22.3074159 C33.3510804,22.29799 33.3122761,22.2860264 33.3093196,22.2838513 L33.1637109,22.2287463 C33.0602326,22.1881427 33.0169935,22.1634905 32.940863,22.129775 C32.8096674,22.0670569 32.6928848,22.0076016 32.57795,21.9470587 C32.3491891,21.8270604 32.130037,21.7070622 31.9142109,21.5856139 C31.4807109,21.3452549 31.0645804,21.0882194 30.6462326,20.837347 C29.8121239,20.3316143 28.9872543,19.8200811 28.1653413,19.3049226 C27.3434283,18.7901266 26.5218848,18.2764182 25.7143848,17.7405953 L23.2885587,16.1400148 L23.9984935,16.2070832 C23.6041674,16.3586218 23.14295,16.5888299 22.6913413,16.836802 C22.2375152,17.0760734 21.7851674,17.3447099 21.3339283,17.6097211 C20.4303413,18.1433688 19.541537,18.7143573 18.6390587,19.2664941 L15.9497326,20.9613331 L13.2485804,22.6539968 Z" id="Fill-15" fill="#924B00"></path>
                </g>
            </g>
        </g>
    </g>
</svg>