<?xml version="1.0" encoding="UTF-8"?>
<svg width="68px" height="67px" viewBox="0 0 68 67" version="1.1" xmlns="http://www.w3.org/2000/svg" xmlns:xlink="http://www.w3.org/1999/xlink">
    <!-- Generator: Sketch 42 (36781) - http://www.bohemiancoding.com/sketch -->
    <title>Adventure</title>
    <desc>Created with Sketch.</desc>
    <defs>
        <polygon id="path-1" points="67.6816565 0.312674253 0 0.312674253 0 66.742532 67.6816565 66.742532 67.6816565 0.312674253"></polygon>
        <polygon id="path-3" points="0.174545652 0.312674253 35.4403065 0.312674253 35.4403065 66.7425683 0.174545652 66.7425683 0.174545652 0.312674253"></polygon>
    </defs>
    <g id="Page-1" stroke="none" stroke-width="1" fill="none" fill-rule="evenodd">
        <g id="Filter-Feature" transform="translate(-287.000000, -141.000000)">
            <g id="Genres" transform="translate(19.000000, 141.000000)">
                <g id="Adventure" transform="translate(268.000000, 0.000000)">
                    <g id="Group-3" transform="translate(0.000000, 0.050057)">
                        <mask id="mask-2" fill="white">
                            <use xlink:href="#path-1"></use>
                        </mask>
                        <g id="Clip-2"></g>
                        <path d="M33.9233522,0.313581081 C33.8960043,0.313581081 33.8686565,0.312492888 33.8405696,0.312492888 C15.1509174,0.312492888 -0.000147826087,15.1833819 -0.000147826087,33.5274218 C-0.000147826087,51.7760633 14.9938522,66.5849253 33.5493522,66.7387233 C33.6465478,66.7398115 33.7433739,66.7427134 33.8405696,66.7427134 C52.5305913,66.7427134 67.6816565,51.8718243 67.6816565,33.5274218 C67.6816565,15.2105868 52.5749391,0.35747155 33.9233522,0.313581081" id="Fill-1" fill="#366CE0" mask="url(#mask-2)"></path>
                    </g>
                    <g id="Group-6" transform="translate(15.152174, 0.050057)">
                        <mask id="mask-4" fill="white">
                            <use xlink:href="#path-3"></use>
                        </mask>
                        <g id="Clip-5"></g>
                        <path d="M0.174545652,5.72248293 C0.174545652,5.72248293 2.79919783,10.5642183 7.41876304,16.5140974 C12.0383283,22.4643393 5.20137174,28.0765156 5.20137174,30.9834431 C5.20137174,33.8903706 10.0057196,35.1599296 11.4839804,34.978564 C12.9622413,34.7971984 15.2890239,50.9394602 7.56621957,64.9038841 C10.9628935,66.0635356 14.6056978,66.7073834 18.397437,66.738941 C18.494263,66.7396664 18.5910891,66.7425683 18.6886543,66.7425683 C24.7831543,66.7425683 30.5010674,65.160335 35.4403065,62.3926963 C35.4403065,62.3926963 28.8535457,51.8455626 25.1578935,51.8455626 C21.4622413,51.8455626 17.0274587,48.4641828 17.0274587,45.1673193 C17.0274587,41.8704559 20.9078935,40.7097162 25.3426761,40.7097162 C29.7774587,40.7097162 31.070937,31.1698869 31.070937,25.9102852 C31.070937,20.6506835 23.3100674,13.2288414 25.1578935,11.9520277 C27.0057196,10.6755768 25.7122413,9.04328663 23.3100674,6.68553414 C20.9078935,4.32778165 18.6886543,0.312347795 18.6886543,0.312347795 C11.8542848,0.312347795 5.49480652,2.30301636 0.174545652,5.72248293" id="Fill-4" fill="#00BA00" mask="url(#mask-4)"></path>
                    </g>
                    <path d="M59.8665717,12.0625882 C59.8628761,12.1710448 59.8728543,12.2791387 59.899463,12.3868698 C59.899463,12.3868698 60.4512239,19.0078016 58.2338326,24.3279794 C56.0164413,29.6477945 60.7875283,45.9115711 63.5758978,49.4474744 C63.62505,49.5098642 63.67605,49.5602838 63.7263109,49.6154189 C66.4030717,44.860739 67.9278978,39.3943805 67.9278978,33.5776238 C67.9278978,25.3697432 64.8930283,17.8586693 59.8665717,12.0625882" id="Fill-7" fill="#00BA00"></path>
                    <g id="Group-11" transform="translate(0.000000, 16.735690)" fill="#00BA00">
                        <path d="M6.74120217,13.1542276 C8.46522391,8.80254196 4.53711522,0.228302987 4.53489783,0.223587482 C1.65155,5.11175249 -3.69565218e-05,10.7874068 -3.69565218e-05,16.8421152 C-3.69565218e-05,19.6304296 0.35178913,22.3382176 1.01146304,24.9263044 C1.53033261,24.8573855 1.92059348,24.5831607 2.05991957,24.0361622 C2.67783261,21.6073144 8.71209348,22.5852376 9.94385435,19.8041778 C11.1759848,17.0234808 5.85646304,15.8141351 6.74120217,13.1542276" id="Fill-9"></path>
                    </g>
                </g>
            </g>
        </g>
    </g>
</svg>