<svg id="Layer_1" data-name="Layer 1" xmlns="http://www.w3.org/2000/svg" xmlns:xlink="http://www.w3.org/1999/xlink" width="67.93" height="66.43" viewBox="0 0 67.93 66.43">
  <defs>
    <style>
      .cls-1 {
        fill: #fff;
      }

      .cls-2 {
        mask: url(#mask);
      }

      .cls-3 {
        fill: #696969;
      }

      .cls-4 {
        mask: url(#mask-2-2);
      }

      .cls-5 {
        fill: #919191;
      }
    </style>
    <mask id="mask" x="0" y="0" width="67.68" height="66.43" maskUnits="userSpaceOnUse">
      <g transform="translate(0 -0.36)">
        <g id="mask-2">
          <polygon id="path-1" class="cls-1" points="67.68 0.36 0 0.36 0 66.79 67.68 66.79 67.68 0.36"/>
        </g>
      </g>
    </mask>
    <mask id="mask-2-2" x="15.33" y="0" width="35.27" height="66.43" maskUnits="userSpaceOnUse">
      <g transform="translate(0 -0.36)">
        <g id="mask-4">
          <polygon id="path-3" class="cls-1" points="15.33 0.36 50.59 0.36 50.59 66.79 15.33 66.79 15.33 0.36"/>
        </g>
      </g>
    </mask>
  </defs>
  <title>adventure</title>
  <g id="Page-1">
    <g id="Filter-Feature">
      <g id="Genres">
        <g id="Adventure">
          <g id="Group-3">
            <g class="cls-2">
              <path id="Fill-1" class="cls-3" d="M33.92.36h-.08C15.15.36,0,15.23,0,33.58S15,66.63,33.55,66.79h.29c18.69,0,33.84-14.87,33.84-33.22S52.57.41,33.92.36" transform="translate(0 -0.36)"/>
            </g>
          </g>
          <g id="Group-6">
            <g class="cls-4">
              <path id="Fill-4" class="cls-5" d="M15.33,5.77a88.18,88.18,0,0,0,7.24,10.79c4.62,6-2.22,11.56-2.22,14.47s4.8,4.18,6.28,4S30.44,51,22.72,65a34.36,34.36,0,0,0,10.83,1.84h.29a34.17,34.17,0,0,0,16.75-4.35S44,51.9,40.31,51.9s-8.13-3.38-8.13-6.68,3.88-4.46,8.32-4.46,5.73-9.54,5.73-14.8-7.76-12.68-5.91-14,.55-2.91-1.85-5.27A33.29,33.29,0,0,1,33.84.36,34.14,34.14,0,0,0,15.33,5.77" transform="translate(0 -0.36)"/>
            </g>
          </g>
          <path id="Fill-7" class="cls-5" d="M59.87,12.06a1.18,1.18,0,0,0,0,.32s.55,6.62-1.67,11.94,2.55,21.58,5.34,25.12l.15.17a32.73,32.73,0,0,0-3.86-37.55" transform="translate(0 -0.36)"/>
          <g id="Group-11">
            <path id="Fill-9" class="cls-5" d="M6.74,29.89C8.47,25.54,4.54,17,4.53,17A32.75,32.75,0,0,0,1,41.66a1.15,1.15,0,0,0,1-.89c.62-2.43,6.65-1.45,7.88-4.23s-4.09-4-3.2-6.65" transform="translate(0 -0.36)"/>
          </g>
        </g>
      </g>
    </g>
  </g>
</svg>
