<?xml version="1.0" encoding="UTF-8"?>
<svg width="68px" height="68px" viewBox="0 0 68 68" version="1.1" xmlns="http://www.w3.org/2000/svg" xmlns:xlink="http://www.w3.org/1999/xlink">
    <!-- Generator: Sketch 42 (36781) - http://www.bohemiancoding.com/sketch -->
    <title>Cartoon</title>
    <desc>Created with Sketch.</desc>
    <defs>
        <polygon id="path-1" points="67.6814348 0.316916757 67.6814348 67.6324324 0.000184782609 67.6324324 0.000184782609 0.316916757 67.6814348 0.316916757"></polygon>
    </defs>
    <g id="Page-1" stroke="none" stroke-width="1" fill="none" fill-rule="evenodd">
        <g id="Filter-Feature" transform="translate(-154.000000, -327.000000)">
            <g id="Genres" transform="translate(19.000000, 141.000000)">
                <g id="Cartoon" transform="translate(135.000000, 186.000000)">
                    <g id="Group-3" transform="translate(0.000000, 0.050724)">
                        <mask id="mask-2" fill="white">
                            <use xlink:href="#path-1"></use>
                        </mask>
                        <g id="Clip-2"></g>
                        <path d="M33.9233152,0.317651892 C33.8955978,0.317651892 33.8686196,0.316916757 33.8405326,0.316916757 C15.1508804,0.316916757 0.000184782609,15.3857168 0.000184782609,33.9743438 C0.000184782609,52.4663005 14.9941848,67.4729816 33.5493152,67.6288303 C33.6465109,67.6295654 33.743337,67.6325059 33.8405326,67.6325059 C52.5305543,67.6325059 67.6816196,52.5633384 67.6816196,33.9743438 C67.6816196,15.4132843 52.5749022,0.362127568 33.9233152,0.317651892" id="Fill-1" fill="#02427E" mask="url(#mask-2)"></path>
                    </g>
                    <path d="M52.811387,40.8018746 L66.6486478,25.746307 C66.3670391,24.6380908 66.0311043,23.5519286 65.6419522,22.4907611 L45.5653217,18.4515611 L35.4403435,0.407669189 C34.9373652,0.384144865 34.4321696,0.36980973 33.9232783,0.368339459 C33.8955609,0.368339459 33.8685826,0.367604324 33.8408652,0.367604324 C33.3046261,0.367604324 32.7720826,0.381204324 32.2421261,0.406198919 L22.1164087,18.4515611 L2.04014783,22.4907611 C1.65062609,23.5519286 1.3146913,24.6380908 1.03308261,25.746307 L14.8703435,40.8018746 L12.6104522,60.2322314 C13.7420609,61.1404908 14.9328,61.9785449 16.1778652,62.7379395 L33.8408652,54.6150638 L51.5046043,62.738307 C52.7493,61.97928 53.9400391,61.1415935 55.0712783,60.2337016 L52.811387,40.8018746 Z" id="Fill-4" fill="#E0D300"></path>
                    <path d="M24.8227717,22.8843892 C24.4997717,22.8843892 23.9502283,26.5218378 23.721837,26.7489946 C23.4930761,26.9761514 19.8362283,27.5227243 19.8362283,27.8439784 C19.8362283,28.1652324 23.4930761,28.7118054 23.721837,28.9393297 C23.9502283,29.1664865 24.4997717,32.8035676 24.8227717,32.8035676 C25.1457717,32.8035676 25.6956848,29.1664865 25.9240761,28.9393297 C26.1524674,28.7118054 29.8096848,28.1652324 29.8096848,27.8439784 C29.8096848,27.5227243 26.1524674,26.9761514 25.9240761,26.7489946 C25.6956848,26.5218378 25.1457717,22.8843892 24.8227717,22.8843892" id="Fill-6" fill="#212121"></path>
                    <path d="M40.7140761,22.8843892 C40.3910761,22.8843892 39.8415326,26.5218378 39.6131413,26.7489946 C39.3843804,26.9761514 35.7275326,27.5227243 35.7275326,27.8439784 C35.7275326,28.1652324 39.3843804,28.7118054 39.6131413,28.9393297 C39.8415326,29.1664865 40.3910761,32.8035676 40.7140761,32.8035676 C41.0370761,32.8035676 41.5869891,29.1664865 41.8153804,28.9393297 C42.0437717,28.7118054 45.7009891,28.1652324 45.7009891,27.8439784 C45.7009891,27.5227243 42.0437717,26.9761514 41.8153804,26.7489946 C41.5869891,26.5218378 41.0370761,22.8843892 40.7140761,22.8843892" id="Fill-8" fill="#212121"></path>
                    <path d="M23.1396978,38.31936 C23.1396978,38.31936 25.65385,39.0500843 33.8408283,39.0500843 C42.027437,39.0500843 44.5419587,38.31936 44.5419587,38.31936 C44.5419587,38.31936 43.832763,47.4493708 33.8408283,47.4493708 C23.8488935,47.4493708 23.1396978,38.31936 23.1396978,38.31936" id="Fill-10" fill="#212121"></path>
                </g>
            </g>
        </g>
    </g>
</svg>