<svg id="Layer_1" data-name="Layer 1" xmlns="http://www.w3.org/2000/svg" xmlns:xlink="http://www.w3.org/1999/xlink" width="67.68" height="67.32" viewBox="0 0 67.68 67.32">
  <defs>
    <style>
      .cls-1 {
        fill: #fff;
      }

      .cls-2 {
        mask: url(#mask);
      }

      .cls-3 {
        fill: #353535;
      }

      .cls-4 {
        fill: silver;
      }

      .cls-5 {
        fill: #212121;
      }
    </style>
    <mask id="mask" x="0" y="0" width="67.68" height="67.32" maskUnits="userSpaceOnUse">
      <g transform="translate(0 -0.37)">
        <g id="mask-2">
          <polygon id="path-1" class="cls-1" points="67.68 0.37 67.68 67.68 0 67.68 0 0.37 67.68 0.37"/>
        </g>
      </g>
    </mask>
  </defs>
  <title>cartoon</title>
  <g id="Page-1">
    <g id="Filter-Feature">
      <g id="Genres">
        <g id="Cartoon">
          <g id="Group-3">
            <g class="cls-2">
              <path id="Fill-1" class="cls-3" d="M33.92.37h-.08a33.66,33.66,0,1,0-.29,67.31h.29A33.66,33.66,0,1,0,33.92.37" transform="translate(0 -0.37)"/>
            </g>
          </g>
          <path id="Fill-4" class="cls-4" d="M52.81,40.8,66.65,25.75a33.21,33.21,0,0,0-1-3.26l-20.08-4L35.44.41c-.5,0-1,0-1.52,0h-.08q-.8,0-1.6,0l-10.13,18L2,22.49a33.11,33.11,0,0,0-1,3.26L14.87,40.8,12.61,60.23a33.91,33.91,0,0,0,3.57,2.51l17.66-8.12L51.5,62.74a33.89,33.89,0,0,0,3.57-2.5Z" transform="translate(0 -0.37)"/>
          <path id="Fill-6" class="cls-5" d="M24.82,22.88c-.32,0-.87,3.64-1.1,3.86s-3.89.77-3.89,1.09,3.66.87,3.89,1.1.78,3.86,1.1,3.86.87-3.64,1.1-3.86,3.89-.77,3.89-1.1-3.66-.87-3.89-1.09-.78-3.86-1.1-3.86" transform="translate(0 -0.37)"/>
          <path id="Fill-8" class="cls-5" d="M40.71,22.88c-.32,0-.87,3.64-1.1,3.86s-3.89.77-3.89,1.09,3.66.87,3.89,1.1.78,3.86,1.1,3.86.87-3.64,1.1-3.86,3.89-.77,3.89-1.1S42,27,41.82,26.75s-.78-3.86-1.1-3.86" transform="translate(0 -0.37)"/>
          <path id="Fill-10" class="cls-5" d="M23.14,38.32s2.51.73,10.7.73,10.7-.73,10.7-.73-.71,9.13-10.7,9.13-10.7-9.13-10.7-9.13" transform="translate(0 -0.37)"/>
        </g>
      </g>
    </g>
  </g>
</svg>
