<?xml version="1.0" encoding="UTF-8"?>
<svg width="68px" height="67px" viewBox="0 0 68 67" version="1.1" xmlns="http://www.w3.org/2000/svg" xmlns:xlink="http://www.w3.org/1999/xlink">
    <!-- Generator: Sketch 42 (36781) - http://www.bohemiancoding.com/sketch -->
    <title>Comedy</title>
    <desc>Created with Sketch.</desc>
    <defs>
        <polygon id="path-1" points="5.4587355e-15 66.7539803 5.4587355e-15 0.312728396 67.6814348 0.312728396 67.6814348 66.7539803 0 66.7539803"></polygon>
    </defs>
    <g id="Page-1" stroke="none" stroke-width="1" fill="none" fill-rule="evenodd">
        <g id="Filter-Feature" transform="translate(-154.000000, -141.000000)">
            <g id="Genres" transform="translate(19.000000, 141.000000)">
                <g id="Comedy" transform="translate(135.000000, 0.000000)">
                    <g id="Group-3" transform="translate(0.000000, 0.050066)">
                        <mask id="mask-2" fill="white">
                            <use xlink:href="#path-1"></use>
                        </mask>
                        <g id="Clip-2"></g>
                        <path d="M33.9233891,0.31370794 C33.8956717,0.31370794 33.8683239,0.312619558 33.8406065,0.312619558 C15.1509543,0.312619558 -0.000110869565,15.1860837 -0.000110869565,33.5332999 C-0.000110869565,51.7851014 14.9942587,66.5965277 33.5493891,66.7503524 C33.6465848,66.751078 33.7434109,66.7539803 33.8406065,66.7539803 C52.5306283,66.7539803 67.6816935,51.8805162 67.6816935,33.5332999 C67.6816935,15.2132932 52.5749761,0.357606009 33.9233891,0.31370794" id="Fill-1" fill="#ECE100" mask="url(#mask-2)"></path>
                    </g>
                    <path d="M26.076263,17.1862393 C26.076263,19.7236203 24.53185,21.7802993 22.6271109,21.7802993 C20.7220022,21.7802993 19.1775891,19.7236203 19.1775891,17.1862393 C19.1775891,14.6488584 20.7220022,12.5921794 22.6271109,12.5921794 C24.53185,12.5921794 26.076263,14.6488584 26.076263,17.1862393" id="Fill-4" fill="#191919"></path>
                    <path d="M48.0036761,17.1862393 C48.0036761,19.7236203 46.459263,21.7802993 44.5545239,21.7802993 C42.6494152,21.7802993 41.1050022,19.7236203 41.1050022,17.1862393 C41.1050022,14.6488584 42.6494152,12.5921794 44.5545239,12.5921794 C46.459263,12.5921794 48.0036761,14.6488584 48.0036761,17.1862393" id="Fill-6" fill="#191919"></path>
                    <path d="M13.7573609,35.3973353 C13.7573609,35.3973353 18.5617087,36.7759524 34.206513,36.7759524 C49.851687,36.7759524 54.6560348,35.3973353 54.6560348,35.3973353 C54.6560348,35.3973353 53.3008391,52.6177136 34.206513,52.6177136 C15.1125565,52.6177136 13.7573609,35.3973353 13.7573609,35.3973353" id="Fill-8" fill="#191919"></path>
                    <path d="M27.858787,40.0502404 C27.858787,40.0502404 28.4227435,48.2744168 35.7530696,48.141997 C43.0833957,48.0088516 39.8412,40.0502404 39.8412,40.0502404 C39.8412,40.0502404 39.5592217,38.4648308 27.858787,40.0502404" id="Fill-10" fill="#FA2937"></path>
                    <path d="M13.7573609,35.3973353 C13.7573609,35.3973353 13.8475348,36.5307037 14.3017304,38.2137049 C14.3017304,38.2137049 32.5024478,44.2469685 54.1120348,38.2137049 C54.5658609,36.5307037 54.6560348,35.3973353 54.6560348,35.3973353 C54.6560348,35.3973353 49.851687,36.4294841 34.206513,36.4294841 C18.5617087,36.4294841 13.7573609,35.3973353 13.7573609,35.3973353" id="Fill-12" fill="#F4F5F4"></path>
                    <path d="M34.2066978,52.8445686 C39.1684804,52.8445686 42.9299152,51.4536166 45.7833283,49.732522 C33.5093283,51.3153921 22.7146978,49.7452198 22.6308065,49.7328848 C25.4842196,51.4539794 29.2456543,52.8445686 34.2066978,52.8445686" id="Fill-14" fill="#FFFFFF"></path>
                    <path d="M21.1795239,34.0852184 C19.871263,33.8098578 18.5722413,33.5471949 17.2710022,33.3491094 C16.6198283,33.258411 15.9708717,33.1677125 15.3222848,33.1328842 C14.6766543,33.0908001 14.0280674,33.0799163 13.4142196,33.1756939 C13.1030457,33.2094338 12.8121978,33.2906996 12.53835,33.3901052 C12.2685674,33.4982178 12.0423935,33.6553075 11.8664804,33.8457744 C11.6820674,34.0322505 11.597437,34.2905598 11.5449587,34.5612041 C11.5046761,34.8220529 11.5131761,35.1808562 11.495437,35.4964869 C11.4839804,36.1447997 11.4680891,36.7934753 11.4858283,37.4410625 C11.486937,37.7657631 11.5091109,38.0875614 11.5357196,38.4100852 C11.5508717,38.5708029 11.5700891,38.7315207 11.6011326,38.8896988 C11.631437,39.0475142 11.6595239,39.2118599 11.7556109,39.3457309 C11.5179804,39.1026589 11.43335,38.759093 11.3343065,38.4467274 C11.24635,38.1263803 11.1790891,37.8002286 11.1243935,37.4740768 C11.0205457,36.8203221 10.9566109,36.1629394 10.9185457,35.5055568 C10.9070891,35.1681584 10.8656978,34.8721185 10.9022848,34.4828406 C10.9477413,34.1160559 11.0604587,33.7187965 11.3243283,33.41151 C11.5774804,33.1027723 11.9141543,32.883282 12.2571109,32.737076 C12.6026543,32.6021167 12.9563283,32.5016227 13.3070457,32.4580875 C14.7165674,32.2803184 16.0702848,32.4998088 17.3811326,32.7954859 C18.6908717,33.1038607 19.9666109,33.5247017 21.1795239,34.0852184" id="Fill-16" fill="#867C00"></path>
                    <path d="M50.7140674,31.9307664 C51.4498717,31.7326809 52.2215239,31.6662896 52.9953935,31.6869689 C53.3826978,31.7040202 53.7703717,31.7508206 54.1558283,31.8248306 C54.5405457,31.9064592 54.9189804,32.0276324 55.2863283,32.1847222 C56.0165891,32.5050693 56.6840239,33.0253158 57.1422848,33.6946707 C57.60535,34.3618488 57.862937,35.1404046 57.9782413,35.9124302 C58.1755891,37.4673651 57.9235457,39.011779 57.4604804,40.4455408 C57.237263,41.1577053 56.9966761,41.8651535 56.7379804,42.5675226 C56.6034587,42.917256 56.4696761,43.267715 56.3188935,43.6120065 C56.2420239,43.783608 56.1644152,43.9552095 56.0775674,44.1231832 C56.0332196,44.2066258 55.9862848,44.2897056 55.9315891,44.3687947 C55.9016543,44.4072508 55.8791109,44.4493349 55.8277413,44.4769073 C55.7918935,44.4961353 55.7652848,44.4536885 55.7671326,44.433372 C55.7626978,44.4094276 55.7626978,44.385846 55.7645457,44.3626272 C55.7682413,44.3999949 55.7878283,44.4776329 55.8151761,44.4522373 C55.8447413,44.4293813 55.8643283,44.3818552 55.882437,44.3419479 C55.9186543,44.2581425 55.9474804,44.1703464 55.9740891,44.0818246 C56.0298935,43.9055068 56.0786761,43.7266494 56.1248717,43.5470663 C56.2168935,43.1875375 56.307437,42.8276459 56.38985,42.4655775 L56.9039152,40.2975208 C57.0831543,39.5766492 57.20585,38.8742801 57.2720022,38.1497806 C57.3351978,37.4318113 57.3521978,36.7113025 57.2472413,36.0147381 C57.1566978,35.3174481 56.9323717,34.6480932 56.55985,34.072702 C56.2021109,33.484613 55.6521978,33.0343857 55.0331761,32.6908198 C54.4019587,32.3624913 53.692763,32.151708 52.9599152,32.0396046 C52.227437,31.9231478 51.4727848,31.8908591 50.7140674,31.9307664" id="Fill-18" fill="#867C00"></path>
                </g>
            </g>
        </g>
    </g>
</svg>