<svg id="Layer_1" data-name="Layer 1" xmlns="http://www.w3.org/2000/svg" xmlns:xlink="http://www.w3.org/1999/xlink" width="67.68" height="66.44" viewBox="0 0 67.68 66.44">
  <defs>
    <style>
      .cls-1 {
        fill: #fff;
      }

      .cls-2 {
        mask: url(#mask);
      }

      .cls-3 {
        fill: #ccc;
      }

      .cls-4 {
        fill: #191919;
      }

      .cls-5 {
        fill: #696969;
      }

      .cls-6 {
        fill: #f5f5f5;
      }

      .cls-7 {
        fill: #717171;
      }
    </style>
    <mask id="mask" x="0" y="0" width="67.68" height="66.44" maskUnits="userSpaceOnUse">
      <g transform="translate(0 -0.36)">
        <g id="mask-2">
          <polygon id="path-1" class="cls-1" points="0 66.8 0 0.36 67.68 0.36 67.68 66.8 0 66.8"/>
        </g>
      </g>
    </mask>
  </defs>
  <title>comedy</title>
  <g id="Page-1">
    <g id="Filter-Feature">
      <g id="Genres">
        <g id="Comedy">
          <g id="Group-3">
            <g class="cls-2">
              <path id="Fill-1" class="cls-3" d="M33.92.36h-.08C15.15.36,0,15.24,0,33.58S15,66.65,33.55,66.8h.29c18.69,0,33.84-14.87,33.84-33.22S52.57.41,33.92.36" transform="translate(0 -0.36)"/>
            </g>
          </g>
          <path id="Fill-4" class="cls-4" d="M26.08,17.19c0,2.54-1.54,4.59-3.45,4.59s-3.45-2.06-3.45-4.59,1.54-4.59,3.45-4.59,3.45,2.06,3.45,4.59" transform="translate(0 -0.36)"/>
          <path id="Fill-6" class="cls-4" d="M48,17.19c0,2.54-1.54,4.59-3.45,4.59s-3.45-2.06-3.45-4.59,1.54-4.59,3.45-4.59S48,14.65,48,17.19" transform="translate(0 -0.36)"/>
          <path id="Fill-8" class="cls-4" d="M13.76,35.4s4.8,1.38,20.45,1.38S54.66,35.4,54.66,35.4,53.3,52.62,34.21,52.62,13.76,35.4,13.76,35.4" transform="translate(0 -0.36)"/>
          <path id="Fill-10" class="cls-5" d="M27.86,40.05s.56,8.22,7.89,8.09,4.09-8.09,4.09-8.09-.28-1.59-12,0" transform="translate(0 -0.36)"/>
          <path id="Fill-12" class="cls-6" d="M13.76,35.4a17.23,17.23,0,0,0,.54,2.82,74.62,74.62,0,0,0,39.81,0,17.25,17.25,0,0,0,.54-2.82s-4.8,1-20.45,1-20.45-1-20.45-1" transform="translate(0 -0.36)"/>
          <path id="Fill-14" class="cls-1" d="M34.21,52.84a21.89,21.89,0,0,0,11.58-3.11,95,95,0,0,1-23.15,0,21.89,21.89,0,0,0,11.58,3.11" transform="translate(0 -0.36)"/>
          <path id="Fill-16" class="cls-7" d="M21.18,34.09c-1.31-.28-2.61-.54-3.91-.74-.65-.09-1.3-.18-1.95-.22a8.79,8.79,0,0,0-1.91,0,3.74,3.74,0,0,0-.88.21,1.84,1.84,0,0,0-.67.46,1.35,1.35,0,0,0-.32.72c0,.26,0,.62,0,.94,0,.65,0,1.3,0,1.94,0,.32,0,.65,0,1,0,.16,0,.32.07.48a1.12,1.12,0,0,0,.15.46,2.15,2.15,0,0,1-.42-.9,9.79,9.79,0,0,1-.21-1c-.1-.65-.17-1.31-.21-2a7.14,7.14,0,0,1,0-1,2,2,0,0,1,.42-1.07,2.43,2.43,0,0,1,.93-.67,4.4,4.4,0,0,1,1-.28,11.69,11.69,0,0,1,4.07.34,19.92,19.92,0,0,1,3.8,1.29" transform="translate(0 -0.36)"/>
          <path id="Fill-18" class="cls-7" d="M50.71,31.93a7.73,7.73,0,0,1,3.44-.11,6.09,6.09,0,0,1,1.13.36,4.4,4.4,0,0,1,1.86,1.51A5.23,5.23,0,0,1,58,35.91a10.48,10.48,0,0,1-.52,4.53q-.33,1.07-.72,2.12c-.13.35-.27.7-.42,1-.08.17-.15.34-.24.51a2.45,2.45,0,0,1-.15.25.33.33,0,0,1-.1.11s-.06,0-.06,0a.27.27,0,0,1,0-.07s0,.12.05.09a.3.3,0,0,0,.07-.11,2.39,2.39,0,0,0,.09-.26c.06-.18.1-.36.15-.53.09-.36.18-.72.26-1.08l.51-2.17a14.14,14.14,0,0,0,.37-2.15,9.06,9.06,0,0,0,0-2.14,4.67,4.67,0,0,0-.69-1.94A4,4,0,0,0,55,32.69,6.69,6.69,0,0,0,53,32a10.73,10.73,0,0,0-2.25-.11" transform="translate(0 -0.36)"/>
        </g>
      </g>
    </g>
  </g>
</svg>
