<svg id="Layer_1" data-name="Layer 1" xmlns="http://www.w3.org/2000/svg" width="67.68" height="67.32" viewBox="0 0 67.68 67.32">
  <defs>
    <style>
      .cls-1 {
        fill: #272727;
      }

      .cls-2 {
        fill: #d4d4d4;
      }

      .cls-3 {
        fill: #acacac;
      }

      .cls-4 {
        fill: #4c4c4c;
      }

      .cls-5 {
        fill: #111;
      }

      .cls-6 {
        fill: #191919;
      }
    </style>
  </defs>
  <title>drama</title>
  <g id="Page-1">
    <g id="Filter-Feature">
      <g id="Genres">
        <g id="Drama">
          <g id="Group-3">
            <path id="Fill-1" class="cls-1" d="M33.92.37h-.08a33.66,33.66,0,1,0-.29,67.31h.29A33.66,33.66,0,1,0,33.92.37" transform="translate(0 -0.37)"/>
          </g>
          <path id="Fill-4" class="cls-2" d="M13.86,7.18l-.28-.1a33.9,33.9,0,0,0-8.39,9.05c4.07,5.13,11.14,15.48,12,26.31,1,13.72,13.61,23,16.23,24.78V11.62A34.26,34.26,0,0,1,13.86,7.18" transform="translate(0 -0.37)"/>
          <path id="Fill-6" class="cls-3" d="M54.12,7.08l-.28.1a34.57,34.57,0,0,1-20.12,4.4l-.35,0v55.6l.48.32s15.56-9.78,16.71-25.1c.81-10.83,7.88-21.18,12-26.31a33.9,33.9,0,0,0-8.39-9.05" transform="translate(0 -0.37)"/>
          <path id="Fill-8" class="cls-4" d="M20.8,36.5s3,7,12.92,5.27V50.1s-13-1.59-12.92-13.6" transform="translate(0 -0.37)"/>
          <path id="Fill-10" class="cls-4" d="M46.29,53.16s-3-7-12.92-5.27V39.56s13,1.59,12.92,13.6" transform="translate(0 -0.37)"/>
          <path id="Fill-12" class="cls-5" d="M17.37,21.79a6,6,0,0,1,.8-1.77,7.82,7.82,0,0,1,1.26-1.5,6.47,6.47,0,0,1,3.78-1.75,3.77,3.77,0,0,1,.57,0,3.89,3.89,0,0,1,.57,0,5.44,5.44,0,0,1,1.11.28,5.23,5.23,0,0,1,1.83,1.19A6,6,0,0,1,29,21.79a25,25,0,0,0-2.94-1.9,4.81,4.81,0,0,0-2.65-.55,8.77,8.77,0,0,0-2.85.85c-1,.45-2,1-3.2,1.61" transform="translate(0 -0.37)"/>
          <path id="Fill-14" class="cls-5" d="M39.54,16.55c1.17.58,2.19,1.15,3.2,1.61A8.77,8.77,0,0,0,45.6,19a4.81,4.81,0,0,0,2.65-.55,25.05,25.05,0,0,0,2.94-1.9,6,6,0,0,1-1.72,3.52,5.22,5.22,0,0,1-1.83,1.19,5.47,5.47,0,0,1-1.11.28,3.94,3.94,0,0,1-.57,0,3.77,3.77,0,0,1-.57,0,6.47,6.47,0,0,1-3.78-1.75,7.8,7.8,0,0,1-1.26-1.5,6,6,0,0,1-.8-1.77" transform="translate(0 -0.37)"/>
          <path id="Stroke-16" class="cls-5" d="M0,0" transform="translate(0 -0.37)"/>
          <path id="Fill-18" class="cls-6" d="M41.45,22.71c-.49.37-1.85,3.31-1.11,4.53s1.11-4.53,1.11-4.53" transform="translate(0 -0.37)"/>
          <path id="Fill-20" class="cls-6" d="M45.37,23.75c-.49.37-2,7.92-.61,8.13s.55-7.76.61-8.13" transform="translate(0 -0.37)"/>
        </g>
      </g>
    </g>
  </g>
</svg>
