<?xml version="1.0" encoding="UTF-8"?>
<svg width="68px" height="68px" viewBox="0 0 68 68" version="1.1" xmlns="http://www.w3.org/2000/svg" xmlns:xlink="http://www.w3.org/1999/xlink">
    <!-- Generator: Sketch 42 (36781) - http://www.bohemiancoding.com/sketch -->
    <title>Drama</title>
    <desc>Created with Sketch.</desc>
    <defs></defs>
    <g id="Page-1" stroke="none" stroke-width="1" fill="none" fill-rule="evenodd">
        <g id="Filter-Feature" transform="translate(-287.000000, -234.000000)">
            <g id="Genres" transform="translate(19.000000, 141.000000)">
                <g id="Drama" transform="translate(268.000000, 93.000000)">
                    <g id="Group-3" transform="translate(0.000000, 0.050724)" fill="#4F0767">
                        <path d="M33.923463,0.317762162 C33.8957457,0.317762162 33.8683978,0.316659459 33.8406804,0.316659459 C15.1510283,0.316659459 -3.69565217e-05,15.385827 -3.69565217e-05,33.9748216 C-3.69565217e-05,52.4664108 14.993963,67.4730919 33.549463,67.628573 C33.6466587,67.6293081 33.7434848,67.6322486 33.8406804,67.6322486 C52.5307022,67.6322486 67.6817674,52.5630811 67.6817674,33.9748216 C67.6817674,15.4133946 52.57505,0.362237838 33.923463,0.317762162" id="Fill-1"></path>
                    </g>
                    <path d="M13.855037,7.17958703 L13.5701022,7.07630054 C10.2480804,9.55260324 7.40095,12.6228951 5.18392826,16.1280195 C9.25801522,21.2629384 16.3252109,31.6081276 17.1386239,42.4403438 C18.1693413,56.1627438 30.7493413,65.4353708 33.3688196,67.2243222 L33.3688196,11.6231114 C31.5575804,11.8072627 22.9097543,12.3479546 13.855037,7.17958703" id="Fill-4" fill="#E3D5A5"></path>
                    <path d="M54.1224935,7.07622703 L53.8375587,7.17951351 C43.6519717,12.9936973 33.7210152,11.5826054 33.7210152,11.5826054 C33.7210152,11.5826054 33.5949935,11.6002486 33.3688196,11.6234054 L33.3688196,67.2242486 C33.67445,67.4333946 33.8466674,67.5414595 33.8466674,67.5414595 C33.8466674,67.5414595 49.4031457,57.7648973 50.5543413,42.4402703 C51.3681239,31.6084216 58.43495,21.2632324 62.5086674,16.1279459 C60.2916457,12.6231892 57.4445152,9.55252973 54.1224935,7.07622703" id="Fill-6" fill="#BAAC83"></path>
                    <path d="M20.8035283,36.5044216 C20.8035283,36.5044216 23.8480065,43.4882054 33.7209413,41.7731351 L33.7209413,50.1044216 C33.7209413,50.1044216 20.680463,48.5117514 20.8035283,36.5044216" id="Fill-8" fill="#584B30"></path>
                    <path d="M46.2858261,53.1619957 C46.2858261,53.1619957 43.2413478,46.1782119 33.3687826,47.8936497 L33.3687826,39.5619957 C33.3687826,39.5619957 46.4092609,41.1546659 46.2858261,53.1619957" id="Fill-10" fill="#584B30"></path>
                    <path d="M17.3717087,21.7866486 C17.529513,21.1426703 17.8247957,20.5644865 18.1692304,20.0179135 C18.5192087,19.4739135 18.9401435,18.9721838 19.4272304,18.5197081 C20.3977087,17.6305622 21.6867522,16.9027784 23.2119478,16.7704541 C23.4000565,16.7524432 23.5892739,16.745827 23.782187,16.7564865 C23.9732522,16.7623676 24.164687,16.7642054 24.355013,16.7983892 C24.7364043,16.8505838 25.1100348,16.9490919 25.4670348,17.0784757 C26.1843609,17.3438595 26.7963609,17.7783243 27.2963826,18.2686595 C28.2812739,19.2739568 28.8585348,20.485827 29.013013,21.7866486 C27.9327739,21.0419568 27.0003609,20.3365946 26.0723826,19.8844865 C25.1462522,19.4209838 24.3058609,19.2607243 23.4259261,19.3338703 C22.5430348,19.402973 21.5777304,19.7245946 20.5758391,20.1811135 C19.5650783,20.635427 18.5424913,21.2055243 17.3717087,21.7866486" id="Fill-12" fill="#111111"></path>
                    <path d="M39.5448826,16.54576 C40.7160348,17.1268843 41.7386217,17.6969816 42.749013,18.1512951 C43.7512739,18.6078141 44.7162087,18.9294357 45.5991,18.9985384 C46.4790348,19.0716843 47.3194261,18.9114249 48.2459261,18.4479222 C49.1735348,17.9958141 50.1059478,17.2904519 51.186187,16.54576 C51.0317087,17.8465816 50.4544478,19.0584519 49.4695565,20.0637492 C48.9699043,20.5540843 48.3579043,20.9885492 47.6405783,21.253933 C47.2832087,21.3833168 46.9099478,21.4814573 46.528187,21.5340195 C46.3378609,21.5678357 46.1467957,21.5700411 45.9553609,21.5759222 C45.7628174,21.5865816 45.5732304,21.5799654 45.3851217,21.5619546 C43.8602957,21.4296303 42.5708826,20.7018465 41.6007739,19.8127005 C41.113687,19.3602249 40.6923826,18.8584951 40.3427739,18.3144951 C39.9983391,17.7679222 39.702687,17.1893708 39.5448826,16.54576" id="Fill-14" fill="#111111"></path>
                    <path id="Stroke-16" stroke="#111111" stroke-width="2"></path>
                    <path d="M41.4526152,22.7053838 C40.9599848,23.0729514 39.6047891,26.0134919 40.3439196,27.2385946 C41.08305,28.4640649 41.4526152,22.7053838 41.4526152,22.7053838" id="Fill-18" fill="#191919"></path>
                    <path d="M45.3655348,23.7468865 C44.8729043,24.1144541 43.3307087,31.6646595 44.7509478,31.8793189 C46.072513,32.0792757 45.304187,24.1159243 45.3655348,23.7468865" id="Fill-20" fill="#191919"></path>
                </g>
            </g>
        </g>
    </g>
</svg>