<?xml version="1.0" encoding="UTF-8"?>
<svg width="61px" height="43px" viewBox="0 0 61 43" version="1.1" xmlns="http://www.w3.org/2000/svg" xmlns:xlink="http://www.w3.org/1999/xlink">
    <!-- Generator: Sketch 42 (36781) - http://www.bohemiancoding.com/sketch -->
    <title>Page 1</title>
    <desc>Created with Sketch.</desc>
    <defs>
        <polygon id="path-1" points="0 0.182271232 0 41.9301585 60.9999443 41.9301585 60.9999443 0.182271232"></polygon>
    </defs>
    <g id="Page-1" stroke="none" stroke-width="1" fill="none" fill-rule="evenodd">
        <g id="Main-Screen" transform="translate(-283.000000, -10.000000)">
            <g id="Top_Bar">
                <g id="Page-1" transform="translate(283.000000, 10.000000)">
                    <g id="Group-3" transform="translate(0.000000, 0.267409)">
                        <mask id="mask-2" fill="white">
                            <use xlink:href="#path-1"></use>
                        </mask>
                        <g id="Clip-2"></g>
                        <path d="M60.9776612,21.0562704 C60.9921452,21.022393 60.9999443,21.0032329 60.9999443,21.0032329 L60.9545425,21.0032329 C60.2679443,19.422938 51.4847799,0.182271232 30.9177525,0.182271232 C10.3507251,0.182271232 0.799350685,19.422938 0.0498027397,21.0032329 L-5.57077626e-05,21.0032329 C-5.57077626e-05,21.0032329 0.00857899543,21.022393 0.0247342466,21.0562704 C0.00857899543,21.0901477 -5.57077626e-05,21.1093079 -5.57077626e-05,21.1093079 L0.0498027397,21.1093079 C0.799350685,22.6896028 10.3507251,41.9302695 30.9177525,41.9302695 C51.4847799,41.9302695 60.2679443,22.6896028 60.9545425,21.1093079 L60.9999443,21.1093079 C60.9999443,21.1093079 60.9921452,21.0901477 60.9776612,21.0562704" id="Fill-1" fill="#EAEBEA" mask="url(#mask-2)"></path>
                    </g>
                    <path d="M16.8773909,3.80170473 L44.4407562,39.0399765 C44.4407562,39.0399765 54.6692584,34.9158261 60.9998886,21.2704752 C60.9998886,21.2704752 46.7821534,-10.0185866 16.8773909,3.80170473" id="Fill-4" fill="#C9C9C9"></path>
                    <path d="M42.1985744,21.3236793 C42.1985744,14.8825405 36.9609306,9.6609862 30.4999443,9.6609862 C24.038958,9.6609862 18.8013142,14.8825405 18.8013142,21.3236793 C18.8013142,27.7648181 24.038958,32.9863724 30.4999443,32.9863724 C36.9609306,32.9863724 42.1985744,27.7648181 42.1985744,21.3236793" id="Fill-6" fill="#AA5D3B"></path>
                    <path d="M33.1460909,21.3236793 C33.1460909,19.8666757 31.6829265,18.6856892 30.2214333,18.6856892 C28.7602187,18.6856892 27.8538534,19.8666757 27.8538534,21.3236793 C27.8538534,22.7806829 29.0387575,23.9616694 30.4999721,23.9616694 C31.9614653,23.9616694 33.1460909,22.7806829 33.1460909,21.3236793" id="Fill-8" fill="#161616"></path>
                </g>
            </g>
        </g>
    </g>
</svg>