<?xml version="1.0" encoding="UTF-8"?>
<svg width="68px" height="67px" viewBox="0 0 68 67" version="1.1" xmlns="http://www.w3.org/2000/svg" xmlns:xlink="http://www.w3.org/1999/xlink">
    <!-- Generator: Sketch 42 (36781) - http://www.bohemiancoding.com/sketch -->
    <title>Fantasy</title>
    <desc>Created with Sketch.</desc>
    <defs>
        <polygon id="path-1" points="0.000184782609 0.311968732 67.6814348 0.311968732 67.6814348 66.5919335 0.000184782609 66.5919335 0.000184782609 0.311968732"></polygon>
    </defs>
    <g id="Page-1" stroke="none" stroke-width="1" fill="none" fill-rule="evenodd">
        <g id="Filter-Feature" transform="translate(-21.000000, -327.000000)">
            <g id="Genres" transform="translate(19.000000, 141.000000)">
                <g id="Fantasy" transform="translate(2.000000, 186.000000)">
                    <g id="Group-3" transform="translate(0.000000, 0.049944)">
                        <mask id="mask-2" fill="white">
                            <use xlink:href="#path-1"></use>
                        </mask>
                        <g id="Clip-2"></g>
                        <path d="M33.9233152,0.312873514 C33.8955978,0.312873514 33.8686196,0.311787775 33.8405326,0.311787775 C15.1508804,0.311787775 0.000184782609,15.149122 0.000184782609,33.4517701 C0.000184782609,51.6592353 14.9941848,66.4346824 33.5493152,66.5884953 C33.6465109,66.5892191 33.743337,66.5921144 33.8405326,66.5921144 C52.5305543,66.5921144 67.6816196,51.7547802 67.6816196,33.4517701 C67.6816196,15.1762654 52.5749022,0.356664948 33.9233152,0.312873514" id="Fill-1" fill="#B766E2" mask="url(#mask-2)"></path>
                    </g>
                    <path d="M35.2864565,29.0115358 L8.55469565,52.8373334 C8.07130435,53.1576261 7.62080435,53.5282247 7.19506522,53.9313955 C8.49852174,55.5589168 9.9535,57.0641116 11.5396739,58.4259891 L39.7829565,33.4145655 C39.459587,29.0115358 35.2864565,29.0115358 35.2864565,29.0115358" id="Fill-4" fill="#131313"></path>
                    <path d="M35.2864565,29.0115358 L31.331,32.5369273 C32.6329783,33.4970816 34.3762174,34.9168651 36.0647609,36.7072471 L39.7829565,33.4145655 C39.459587,29.0115358 35.2864565,29.0115358 35.2864565,29.0115358" id="Fill-6" fill="#DDDDDD"></path>
                    <path d="M50.5510522,30.1495703 C49.9372043,30.1495703 48.8917043,36.9578716 48.4574652,37.383119 C48.0235957,37.8083664 41.0713348,38.8318555 41.0713348,39.4329925 C41.0713348,40.0344913 48.0235957,41.0583423 48.4574652,41.4832278 C48.8917043,41.9084752 49.9372043,48.7167766 50.5510522,48.7167766 C51.1652696,48.7167766 52.2104,41.9084752 52.6446391,41.4832278 C53.0788783,41.0583423 60.0307696,40.0344913 60.0307696,39.4329925 C60.0307696,38.8318555 53.0788783,37.8083664 52.6446391,37.383119 C52.2104,36.9578716 51.1652696,30.1495703 50.5510522,30.1495703" id="Fill-8" fill="#F4F5F4"></path>
                    <path d="M17.3008261,16.2127472 C16.8141087,16.2127472 15.9855435,21.6095891 15.6414783,21.9465298 C15.297413,22.2834705 9.78645652,23.0952406 9.78645652,23.5715177 C9.78645652,24.0481567 15.297413,24.8599269 15.6414783,25.1965057 C15.9855435,25.5338083 16.8141087,30.9306502 17.3008261,30.9306502 C17.7875435,30.9306502 18.6161087,25.5338083 18.9601739,25.1965057 C19.3046087,24.8599269 24.8151957,24.0481567 24.8151957,23.5715177 C24.8151957,23.0952406 19.3046087,22.2834705 18.9601739,21.9465298 C18.6161087,21.6095891 17.7875435,16.2127472 17.3008261,16.2127472" id="Fill-10" fill="#F4F5F4"></path>
                    <path d="M26.7864565,12.1111908 C26.6349348,12.1111908 26.3766087,13.7922752 26.2694348,13.8972298 C26.1622609,14.0021845 24.446,14.2547996 24.446,14.4031838 C24.446,14.551568 26.1622609,14.804183 26.2694348,14.9091377 C26.3766087,15.0140924 26.6349348,16.6951768 26.7864565,16.6951768 C26.9379783,16.6951768 27.1959348,15.0140924 27.3031087,14.9091377 C27.4102826,14.804183 29.126913,14.551568 29.126913,14.4031838 C29.126913,14.2547996 27.4102826,14.0021845 27.3031087,13.8972298 C27.1959348,13.7922752 26.9379783,12.1111908 26.7864565,12.1111908" id="Fill-12" fill="#F4F5F4"></path>
                    <path d="M9.78645652,28.4241154 C9.58282609,28.4241154 9.23654348,30.6799171 9.09278261,30.8210631 C8.94865217,30.9618471 6.64515217,31.3009593 6.64515217,31.5003732 C6.64515217,31.699787 8.94865217,32.0385373 9.09278261,32.1796833 C9.23654348,32.3208292 9.58282609,34.576631 9.78645652,34.576631 C9.98971739,34.576631 10.3363696,32.3208292 10.4801304,32.1796833 C10.6238913,32.0385373 12.9277609,31.699787 12.9277609,31.5003732 C12.9277609,31.3009593 10.6238913,30.9618471 10.4801304,30.8210631 C10.3363696,30.6799171 9.98971739,28.4241154 9.78645652,28.4241154" id="Fill-14" fill="#F4F5F4"></path>
                    <path d="M42.3219065,11.4898591 C42.0096239,11.4453438 40.9596891,14.8324846 40.706537,15.0170601 C40.4533848,15.2016355 36.839037,15.2153882 36.7932109,15.5212044 C36.7473848,15.8270206 40.2061457,16.8548527 40.3949935,17.1031248 C40.5834717,17.350673 40.5971457,20.8909029 40.9097978,20.9357801 C41.2220804,20.9802953 42.2716457,17.5927926 42.5247978,17.4085791 C42.77795,17.2240036 46.3926674,17.2102509 46.4384935,16.9040728 C46.48395,16.5982566 43.0251891,15.5704245 42.8367109,15.3225144 C42.6482326,15.0742423 42.6341891,11.5347362 42.3219065,11.4898591" id="Fill-16" fill="#F4F5F4"></path>
                    <path d="M37.4867,47.981551 C37.2605261,48.0217233 37.3418304,50.5985416 37.2110043,50.7838409 C37.0801783,50.9691402 34.5893087,51.802987 34.6303304,52.0244775 C34.6713522,52.2459681 37.3030261,52.1663473 37.4918739,52.2944644 C37.6810913,52.4225815 38.5325696,54.8622349 38.7587435,54.8217007 C38.9849174,54.7815283 38.903613,52.2047101 39.0344391,52.0194108 C39.1652652,51.8344734 41.6565043,51.0002646 41.615113,50.7787741 C41.5740913,50.5572835 38.942787,50.6369043 38.7535696,50.5087872 C38.5647217,50.3806701 37.7128739,47.9413787 37.4867,47.981551" id="Fill-18" fill="#F4F5F4"></path>
                    <path d="M57.8990435,47.0141946 C57.7342174,47.016366 57.4758913,48.8487299 57.360587,48.964542 C57.2452826,49.0803541 55.3808261,49.3774844 55.3826739,49.5392593 C55.3848913,49.7006724 57.2563696,49.9532875 57.3746304,50.0665661 C57.4925217,50.179121 57.7963043,52.0049704 57.9611304,52.0031609 C58.1259565,52.0009894 58.3842826,50.1686255 58.499587,50.0528134 C58.6148913,49.9370014 60.4793478,49.6398711 60.4775,49.478458 C60.4752826,49.316683 58.6038043,49.064068 58.4855435,48.9511512 C58.3676522,48.8382345 58.0638696,47.012385 57.8990435,47.0141946" id="Fill-20" fill="#F4F5F4"></path>
                    <path d="M56.6434826,26.5170165 C56.4786565,26.518826 56.2203304,28.3515519 56.1050261,28.4673639 C55.9900913,28.5828141 54.1256348,28.8803063 54.1274826,29.0420813 C54.1293304,29.2034943 56.0008087,29.4561094 56.1190696,29.5690261 C56.2369609,29.6819429 56.5407435,31.5077924 56.7055696,31.5059828 C56.8707652,31.5038113 57.1287217,29.6710855 57.2440261,29.5556354 C57.3593304,29.4398233 59.223787,29.142693 59.2219391,28.9812799 C59.2197217,28.8191431 57.3482435,28.566528 57.2303522,28.4539732 C57.1120913,28.3410564 56.8086783,26.514845 56.6434826,26.5170165" id="Fill-22" fill="#F4F5F4"></path>
                </g>
            </g>
        </g>
    </g>
</svg>