<svg id="Layer_1" data-name="Layer 1" xmlns="http://www.w3.org/2000/svg" xmlns:xlink="http://www.w3.org/1999/xlink" width="67.68" height="66.28" viewBox="0 0 67.68 66.28">
  <defs>
    <style>
      .cls-1 {
        fill: #fff;
      }

      .cls-2 {
        mask: url(#mask);
      }

      .cls-3 {
        fill: #8c8c8c;
      }

      .cls-4 {
        fill: #131313;
      }

      .cls-5 {
        fill: #ddd;
      }

      .cls-6 {
        fill: #f5f5f5;
      }
    </style>
    <mask id="mask" x="0" y="0" width="67.68" height="66.28" maskUnits="userSpaceOnUse">
      <g transform="translate(0 -0.36)">
        <g id="mask-2">
          <polygon id="path-1" class="cls-1" points="0 0.36 67.68 0.36 67.68 66.64 0 66.64 0 0.36"/>
        </g>
      </g>
    </mask>
  </defs>
  <title>fantasy</title>
  <g id="Page-1">
    <g id="Filter-Feature">
      <g id="Genres">
        <g id="Fantasy">
          <g id="Group-3">
            <g class="cls-2">
              <path id="Fill-1" class="cls-3" d="M33.92.36h-.08C15.15.36,0,15.2,0,33.5s15,33,33.55,33.14h.29c18.69,0,33.84-14.84,33.84-33.14S52.57.41,33.92.36" transform="translate(0 -0.36)"/>
            </g>
          </g>
          <path id="Fill-4" class="cls-4" d="M35.29,29,8.55,52.84A10.1,10.1,0,0,0,7.2,53.93a33.65,33.65,0,0,0,4.34,4.49l28.24-25a4.54,4.54,0,0,0-4.5-4.4" transform="translate(0 -0.36)"/>
          <path id="Fill-6" class="cls-5" d="M35.29,29l-4,3.53a35.82,35.82,0,0,1,4.73,4.17l3.72-3.29a4.54,4.54,0,0,0-4.5-4.4" transform="translate(0 -0.36)"/>
          <path id="Fill-8" class="cls-6" d="M50.55,30.15c-.61,0-1.66,6.81-2.09,7.23s-7.39,1.45-7.39,2,7,1.63,7.39,2.05,1.48,7.23,2.09,7.23,1.66-6.81,2.09-7.23S60,40,60,39.43s-7-1.62-7.39-2-1.48-7.23-2.09-7.23" transform="translate(0 -0.36)"/>
          <path id="Fill-10" class="cls-6" d="M17.3,16.21c-.49,0-1.32,5.4-1.66,5.73S9.79,23.1,9.79,23.57s5.51,1.29,5.86,1.62,1.17,5.73,1.66,5.73,1.32-5.4,1.66-5.73,5.86-1.15,5.86-1.62S19.3,22.28,19,21.95s-1.17-5.73-1.66-5.73" transform="translate(0 -0.36)"/>
          <path id="Fill-12" class="cls-6" d="M26.79,12.11c-.15,0-.41,1.68-.52,1.79s-1.82.36-1.82.51,1.72.4,1.82.51.37,1.79.52,1.79.41-1.68.52-1.79,1.82-.36,1.82-.51-1.72-.4-1.82-.51-.37-1.79-.52-1.79" transform="translate(0 -0.36)"/>
          <path id="Fill-14" class="cls-6" d="M9.79,28.42c-.2,0-.55,2.26-.69,2.4s-2.45.48-2.45.68,2.3.54,2.45.68.49,2.4.69,2.4.55-2.26.69-2.4,2.45-.48,2.45-.68-2.3-.54-2.45-.68-.49-2.4-.69-2.4" transform="translate(0 -0.36)"/>
          <path id="Fill-16" class="cls-6" d="M42.32,11.49C42,11.45,41,14.83,40.71,15s-3.87.2-3.91.5,3.41,1.33,3.6,1.58.2,3.79.51,3.83,1.36-3.34,1.62-3.53,3.87-.2,3.91-.5-3.41-1.33-3.6-1.58-.2-3.79-.51-3.83" transform="translate(0 -0.36)"/>
          <path id="Fill-18" class="cls-6" d="M37.49,48c-.23,0-.14,2.62-.28,2.8s-2.62,1-2.58,1.24,2.67.14,2.86.27,1,2.57,1.27,2.53S38.9,52.2,39,52s2.62-1,2.58-1.24-2.67-.14-2.86-.27-1-2.57-1.27-2.53" transform="translate(0 -0.36)"/>
          <path id="Fill-20" class="cls-6" d="M57.9,47c-.16,0-.42,1.83-.54,2s-2,.41-2,.57,1.87.41,2,.53S57.8,52,58,52s.42-1.83.54-2,2-.41,2-.57-1.87-.41-2-.53S58.06,47,57.9,47" transform="translate(0 -0.36)"/>
          <path id="Fill-22" class="cls-6" d="M56.64,26.52c-.16,0-.42,1.83-.54,2s-2,.41-2,.57,1.87.41,2,.53.42,1.94.59,1.94.42-1.83.54-2,2-.41,2-.57-1.87-.41-2-.53-.42-1.94-.59-1.94" transform="translate(0 -0.36)"/>
        </g>
      </g>
    </g>
  </g>
</svg>
