<svg id="Layer_1" data-name="Layer 1" xmlns="http://www.w3.org/2000/svg" xmlns:xlink="http://www.w3.org/1999/xlink" width="66.92" height="66.58" viewBox="0 0 66.92 66.58">
  <defs>
    <style>
      .cls-1 {
        fill: #fff;
      }

      .cls-2 {
        mask: url(#mask);
      }

      .cls-3 {
        fill: #7f7f7f;
      }

      .cls-4 {
        fill: #8b8b8b;
      }

      .cls-5 {
        fill: #191919;
      }

      .cls-6 {
        fill: #353535;
      }

      .cls-7 {
        mask: url(#mask-2-2);
      }

      .cls-8 {
        fill: #4d4d4d;
      }
    </style>
    <mask id="mask" x="33.17" y="0.01" width="33.75" height="66.56" maskUnits="userSpaceOnUse">
      <g transform="translate(0 -0.36)">
        <g id="mask-2">
          <polygon id="path-1" class="cls-1" points="66.92 0.38 66.92 66.94 33.17 66.94 33.17 0.38 66.92 0.38"/>
        </g>
      </g>
    </mask>
    <mask id="mask-2-2" x="0" y="0" width="66.92" height="66.58" maskUnits="userSpaceOnUse">
      <g transform="translate(0 -0.36)">
        <g id="mask-4">
          <polygon id="path-3" class="cls-1" points="32.62 66.94 66.92 66.94 66.92 0.36 0 0.36 0 66.94 32.62 66.94 34.07 66.94 34.07 0.38 32.62 0.38 32.62 66.94"/>
        </g>
      </g>
    </mask>
  </defs>
  <title>horror</title>
  <g id="Page-1">
    <g id="Filter-Feature">
      <g id="Genres">
        <g id="Horror">
          <g id="Group-3">
            <g class="cls-2">
              <path id="Fill-1" class="cls-3" d="M33.54.38l-.37,66.55h.29A33.28,33.28,0,1,0,33.54.38" transform="translate(0 -0.36)"/>
            </g>
          </g>
          <path id="Fill-4" class="cls-4" d="M27.94,37.74s9.17-.88,13.86,1.2c0,0,.54,3.35-11.89,3.08s-2-4.28-2-4.28" transform="translate(0 -0.36)"/>
          <path id="Fill-6" class="cls-4" d="M31.72,29.85a22.83,22.83,0,0,0,14.69,0s3.08,2.73,0,3.82-12.56,3.45-16.22,0,1.53-3.82,1.53-3.82" transform="translate(0 -0.36)"/>
          <path id="Fill-8" class="cls-4" d="M34.87,23.79s8.58-.85,9.55-.49,7.92,2.42,7.43,3.51-3,4-7.92,0c0,0-4.89,3-9.08,1s-2.22-5.21,0-4" transform="translate(0 -0.36)"/>
          <path id="Fill-10" class="cls-4" d="M29.16,15.55s4.54,2.67,8,0,10.6,3.76,9.87,4.24-1.34,3.27-6.58,1.45S32.32,22.34,29.05,20s.11-4.48.11-4.48" transform="translate(0 -0.36)"/>
          <path id="Fill-12" class="cls-5" d="M33.46.38a33.28,33.28,0,1,0-.29,66.56L33.54.38h-.08" transform="translate(0 -0.36)"/>
          <path id="Fill-14" class="cls-6" d="M41.74,15.52h0s-2,3-.5,6c4.46,1.24,5-1.26,5.73-1.72.47-.31-2.29-3-5.23-4.27" transform="translate(0 -0.36)"/>
          <path id="Fill-16" class="cls-6" d="M45.24,23.59h0s-1.51,2,.53,4.49c3.68,2,5.66-.31,6.08-1.25s-4.5-2.54-6.61-3.24" transform="translate(0 -0.36)"/>
          <path id="Fill-18" class="cls-6" d="M46.41,29.85a21.93,21.93,0,0,1-4.57,1h0s-1,2.5.8,3.82a33.5,33.5,0,0,0,3.78-1c3.08-1.09,0-3.82,0-3.82" transform="translate(0 -0.36)"/>
          <path id="Fill-20" class="cls-6" d="M41.8,38.94a16.15,16.15,0,0,0-4.32-1.09s-1.6,1.87.78,3.56c3.79-.91,3.54-2.47,3.54-2.47" transform="translate(0 -0.36)"/>
          <g id="Group-24">
            <g class="cls-7">
              <path id="Fill-22" class="cls-8" d="M33.2,66.94a43.36,43.36,0,0,1-.43-8.34c0-1.39.11-2.78.16-4.16,0-.69.06-1.38.12-2.07s.13-1.38.18-2.07a26.49,26.49,0,0,0,0-4.16c0-.69-.12-1.38-.19-2.07s-.15-1.38-.22-2.07c0-.34-.08-.69-.12-1,0-.16,0-.38,0-.56l0-.53,0-2.09,0-4.17q0-2.08,0-4.16c0-1.39,0-2.78.05-4.16.05-2.78.12-5.55.27-8.33.46-5.53.46-11.06.53-16.62h.11q.3,4.16.42,8.32c0,1.39.07,2.78.05,4.17,0,.7,0,1.4-.05,2.1S34,16.34,33.94,17c-.11,5.53-.12,11.08-.19,16.63l0,4.16v2.59l0,.48c0,.38,0,.72,0,1.07,0,.7,0,1.4,0,2.09l-.07,2.09a38.26,38.26,0,0,0,.14,4.17,46.88,46.88,0,0,1-.16,8.34c-.19,2.76-.37,5.51-.34,8.29Z" transform="translate(0 -0.36)"/>
            </g>
          </g>
          <path id="Fill-25" class="cls-8" d="M33.51.39a29.57,29.57,0,0,1-.46,3.37,30.12,30.12,0,0,1-.77,3.29c-.34,1.08-.75,2.14-1,3.24a23,23,0,0,0-.5,3.35c-.08,1.13-.22,2.24-.29,3.34,0,.27,0,.55,0,.81a6.61,6.61,0,0,0,0,.78c.06.54.13,1.08.21,1.63.16,1.1.36,2.21.47,3.35a9.58,9.58,0,0,1,0,1.75,2.84,2.84,0,0,1-.21.89,1.22,1.22,0,0,1-.28.39.85.85,0,0,1-.42.21l0-.1a.79.79,0,0,0,.4-.6,2.81,2.81,0,0,0,0-.78,13.32,13.32,0,0,0-.32-1.61c-.26-1.08-.57-2.17-.79-3.3a14.81,14.81,0,0,1-.24-1.72,6.33,6.33,0,0,1,0-.91c0-.3,0-.59.09-.88a22.58,22.58,0,0,1,.7-3.36c.31-1.1.6-2.19.82-3.3s.3-2.25.46-3.37a24.67,24.67,0,0,1,.8-3.3A24.2,24.2,0,0,1,33.41.36Z" transform="translate(0 -0.36)"/>
          <path id="Fill-27" class="cls-8" d="M32.85,31.07a7.52,7.52,0,0,1-.08,1.33c0,.22-.06.43-.11.65a4.38,4.38,0,0,1-.16.63c-.13.42-.33.82-.42,1.25a4.93,4.93,0,0,0-.11,1.3L32,37.52c0,.41.08.85.09,1.28s0,.86,0,1.31a3.66,3.66,0,0,1-.07.69,1.12,1.12,0,0,1-.36.63l-.06,0a2.21,2.21,0,0,0-.09-1.22,10,10,0,0,1-.22-1.31,7.4,7.4,0,0,1,.24-2.67,8.55,8.55,0,0,0,.27-1.3c.05-.44,0-.89.06-1.33a6.06,6.06,0,0,1,.31-1.29,5.7,5.7,0,0,1,.56-1.22Z" transform="translate(0 -0.36)"/>
          <path id="Fill-29" class="cls-8" d="M31.41,37.6a12.52,12.52,0,0,1,0,2.37c0,.38-.06.76-.1,1.13a7.21,7.21,0,0,1-.19,1.1,8.13,8.13,0,0,0-.48,2.23,2.31,2.31,0,0,0,.06.56,2.36,2.36,0,0,0,.15.53,4.35,4.35,0,0,0,.57,1c.23.31.48.59.71.88s.46.57.72.91a3.73,3.73,0,0,1,.39.63,2.15,2.15,0,0,1,.2.95,2.35,2.35,0,0,1-.05.46c0,.14-.07.26-.11.39s-.09.22-.14.34-.07.17-.12.25a17.2,17.2,0,0,0-.83,2c-.25.69-.44,1.42-.71,2.21h-.18a6.37,6.37,0,0,1-.07-5l.21-.48.06-.16s0-.09,0-.11a.36.36,0,0,0,0-.19,1.92,1.92,0,0,0-.16-.4,11.51,11.51,0,0,1-.51-1.08,7.61,7.61,0,0,1-.35-1.2c-.09-.4-.17-.8-.25-1.21-.05-.2-.07-.4-.1-.6s-.07-.4-.1-.6a20.39,20.39,0,0,1-.45-2.43,4.64,4.64,0,0,1,.1-1.21A8,8,0,0,1,30,39.68a6.49,6.49,0,0,1,1.19-2.14Z" transform="translate(0 -0.36)"/>
          <path id="Fill-31" class="cls-8" d="M30.5,21.51c-.07,1.58-.09,3.16,0,4.72a21.35,21.35,0,0,0,.22,2.32A17.29,17.29,0,0,1,31,30.92a26.22,26.22,0,0,1-.41,4.77L30.24,38q-.1.58-.16,1.17a5.32,5.32,0,0,0,0,.58,2.61,2.61,0,0,0,0,.29l0,.29a3.46,3.46,0,0,1-.22-1.17c0-.4,0-.8,0-1.2,0-.79.1-1.58.18-2.37a40.3,40.3,0,0,0,.24-4.67,9.09,9.09,0,0,0-.1-1.14c0-.36-.14-.78-.18-1.18a16.77,16.77,0,0,1-.11-2.4,22.58,22.58,0,0,1,.59-4.73" transform="translate(0 -0.36)"/>
        </g>
      </g>
    </g>
  </g>
</svg>
