<?xml version="1.0" encoding="UTF-8"?>
<svg width="67px" height="67px" viewBox="0 0 67 67" version="1.1" xmlns="http://www.w3.org/2000/svg" xmlns:xlink="http://www.w3.org/1999/xlink">
    <!-- Generator: Sketch 42 (36781) - http://www.bohemiancoding.com/sketch -->
    <title>Horror</title>
    <desc>Created with Sketch.</desc>
    <defs>
        <polygon id="path-1" points="34.0338173 0.312011175 34.0338173 66.8705186 0.285277772 66.8705186 0.285277772 0.312011175 34.0338173 0.312011175"></polygon>
        <polygon id="path-3" points="32.6207477 66.8725175 66.9209692 66.8725175 66.9209692 0.297291953 0 0.297291953 0 66.8725175 32.6207477 66.8725175 34.0692876 66.8725538 34.0692876 0.31041205 32.6207477 0.31041205 32.6207477 66.8725175"></polygon>
    </defs>
    <g id="Page-1" stroke="none" stroke-width="1" fill="none" fill-rule="evenodd">
        <g id="Filter-Feature" transform="translate(-19.000000, -141.000000)">
            <g id="Genres" transform="translate(19.000000, 141.000000)">
                <g id="Horror">
                    <g id="Group-3" transform="translate(32.887152, 0.066146)">
                        <mask id="mask-2" fill="white">
                            <use xlink:href="#path-1"></use>
                        </mask>
                        <g id="Clip-2"></g>
                        <path d="M0.655075525,0.312011175 L0.285277772,66.8665207 C0.381381339,66.8676111 0.477119492,66.8705186 0.573223058,66.8705186 C19.0532446,66.8705186 34.0340731,51.9706675 34.0340731,33.590538 C34.0340731,15.2380298 19.0970941,0.355987124 0.655075525,0.312011175" id="Fill-1" fill="#7F7F7F" mask="url(#mask-2)"></path>
                    </g>
                    <path d="M27.9416916,37.7405229 C27.9416916,37.7405229 37.1146491,36.8606404 41.8039916,38.9402304 C41.8039916,38.9402304 42.3458988,42.2947594 29.9119975,42.0243618 C17.4780961,41.7536008 27.9416916,37.7405229 27.9416916,37.7405229" id="Fill-4" fill="#34C73B"></path>
                    <path d="M31.7151635,29.8497839 C31.7151635,29.8497839 38.5301122,32.5755658 46.4076813,29.8497839 C46.4076813,29.8497839 49.4924961,32.5755658 46.4076813,33.6658786 C43.3232319,34.7561914 33.8524629,37.1185358 30.183353,33.6658786 C26.5142431,30.2132215 31.7151635,29.8497839 31.7151635,29.8497839" id="Fill-6" fill="#34C73B"></path>
                    <path d="M34.8696991,23.7941503 C34.8696991,23.7941503 43.4448412,22.9444332 44.4193972,23.3078708 C45.3935877,23.6713084 52.3364309,25.7309092 51.8493356,26.821222 C51.3622404,27.9115348 48.8043508,30.8190356 43.9319365,26.821222 C43.9319365,26.821222 39.0397899,29.8544722 34.8474089,27.7926907 C30.6553933,25.7309092 32.6286224,22.58463 34.8696991,23.7941503" id="Fill-8" fill="#34C73B"></path>
                    <path d="M29.1572739,15.5545112 C29.1572739,15.5545112 33.7004512,18.2195991 37.1112143,15.5545112 C40.5216119,12.8894233 47.7081854,19.3099119 46.9773598,19.7947376 C46.2465342,20.2792 45.6373911,23.065676 40.3999295,21.248488 C35.1621024,19.4313 32.3169983,22.3384374 29.0502079,20.0367871 C25.7834175,17.7351368 29.1572739,15.5545112 29.1572739,15.5545112" id="Fill-10" fill="#34C73B"></path>
                    <path d="M33.4605212,0.377248224 C14.9808651,0.377248224 3.65412799e-05,15.2770993 3.65412799e-05,33.6568654 C3.65412799e-05,51.9406839 14.8255646,66.7787506 33.1725759,66.9328481 L33.5423736,0.377975099 C33.5149677,0.377975099 33.4879271,0.377248224 33.4605212,0.377248224" id="Fill-12" fill="#191919"></path>
                    <path d="M41.7436985,15.5218382 L41.7436985,15.5218382 C41.7436985,15.5218382 39.7101763,18.5343724 41.2423521,21.5116532 C45.7047732,22.7560635 46.2879721,20.2519785 46.9771406,19.794774 C47.4437727,19.4854886 44.6863678,16.7622507 41.7436985,15.5218382" id="Fill-14" fill="#353535"></path>
                    <path d="M45.2400778,23.585101 L45.2400778,23.585101 C45.2400778,23.585101 43.7349425,25.5731046 45.767003,28.075009 C49.4518257,30.0681008 51.4276127,27.7649968 51.8492991,26.8211493 C52.2618501,25.8976544 47.3474134,24.2799937 45.2400778,23.585101" id="Fill-16" fill="#353535"></path>
                    <path d="M46.407864,29.8497839 C44.8245303,30.3974843 43.285777,30.7223975 41.8347228,30.8961207 L41.8343574,30.8964841 C41.8343574,30.8964841 40.8462812,33.3994788 42.632419,34.7136692 C44.2077135,34.3673132 45.5535289,33.9678952 46.407864,33.6658786 C49.4923134,32.5755658 46.407864,29.8497839 46.407864,29.8497839" id="Fill-18" fill="#353535"></path>
                    <path d="M41.8038089,38.9403394 C40.585888,38.3999077 39.0643091,38.0608204 37.4806101,37.8525707 C37.4754943,37.8583857 35.8771787,39.7224571 38.262228,41.4080807 C42.0530204,40.5016673 41.8038089,38.9403394 41.8038089,38.9403394" id="Fill-20" fill="#353535"></path>
                    <g id="Group-24" transform="translate(0.000000, 0.066146)">
                        <mask id="mask-4" fill="white">
                            <use xlink:href="#path-3"></use>
                        </mask>
                        <g id="Clip-23"></g>
                        <path d="M33.199653,66.8725538 C32.7432524,64.119514 32.69246,61.3072339 32.7732162,58.5302073 C32.8035455,57.1393316 32.8832055,55.7546343 32.9361903,54.3728446 C32.9687121,53.6815863 32.9972143,52.9939624 33.0520262,52.305975 C33.1196276,51.6172608 33.1788244,50.9263659 33.2347326,50.2343807 C33.3684737,48.8504103 33.367012,47.4620787 33.2829671,46.0781084 C33.235098,45.3861232 33.1674966,44.6948649 33.096972,44.0046969 C33.0198699,43.3148923 32.943864,42.6254512 32.881013,41.939281 C32.8466642,41.6001938 32.805738,41.2472959 32.7651771,40.9321955 C32.7469065,40.7675582 32.7359441,40.5542204 32.7257126,40.3743188 L32.7089036,39.848788 L32.6679773,37.7601121 L32.6285128,33.594027 C32.6186466,32.2056954 32.617185,30.8173638 32.6299744,29.4293956 C32.6423984,28.0414274 32.6471488,26.6530958 32.6804014,25.2651276 C32.7344825,22.488101 32.8050071,19.7136184 32.9526339,16.9322305 C33.4115924,11.4014371 33.411227,5.87100725 33.4875982,0.314046426 L33.5968567,0.31041205 C33.7989299,3.08089684 33.9410755,5.85465256 34.0119656,8.63313297 C34.0474106,10.0225549 34.0810286,11.4127037 34.0653159,12.8068503 C34.0572768,13.5039236 34.041564,14.2020872 34.0108694,14.9027949 C33.9838288,15.5958704 33.9582499,16.2780428 33.9425372,16.9711183 C33.8354712,22.5030019 33.8270667,28.0541477 33.754715,33.5969345 L33.7225587,37.7539337 L33.727309,39.8266183 L33.7346173,40.3412459 L33.7565421,40.8217104 C33.7872367,41.1971415 33.7806593,41.5373191 33.7865059,41.8905804 C33.7967375,42.5898343 33.7762744,43.2865442 33.7463105,43.9828906 L33.6761512,46.0693859 C33.6527648,47.4588078 33.6852866,48.8453222 33.8135465,50.2358345 C34.1383984,53.0223105 33.8234126,55.8178725 33.6534957,58.572366 C33.4612885,61.3344917 33.2818708,64.0842606 33.3089114,66.8631044 L33.199653,66.8725538 Z" id="Fill-22" fill="#FF0000" mask="url(#mask-4)"></path>
                    </g>
                    <path d="M33.5136887,0.390731758 C33.4387791,1.53592362 33.2575343,2.65204047 33.0554611,3.76270576 C32.8416946,4.87082699 32.6271973,5.97713103 32.2902867,7.05581381 C31.9508182,8.13376972 31.5419213,9.197915 31.2890556,10.2973137 C31.0361899,11.396349 30.8827166,12.5164637 30.7935558,13.6423933 C30.7149921,14.768323 30.5739427,15.8840764 30.507803,16.9823848 C30.4917249,17.2564168 30.4807625,17.5293584 30.4818587,17.7932141 C30.47857,18.0686998 30.4979369,18.2911236 30.5257083,18.5720609 C30.5816164,19.1106754 30.6590839,19.6547415 30.7402056,20.2035322 C30.9006218,21.3014772 31.0961176,22.4139597 31.2134151,23.5573344 C31.2642075,24.1297486 31.3058646,24.7112487 31.2503218,25.3072864 C31.2240121,25.6042149 31.1662769,25.9076853 31.0398441,26.1980719 C30.9737043,26.3416298 30.883082,26.4808264 30.7624957,26.590948 C30.6422749,26.7021599 30.4895324,26.7701227 30.340444,26.7970171 L30.3060952,26.6938008 C30.5505563,26.567688 30.6660268,26.3361782 30.7073184,26.0894041 C30.7540913,25.8411762 30.7358206,25.5740496 30.7098763,25.3083767 C30.6466599,24.7744869 30.5213233,24.2351455 30.3879476,23.6958041 C30.1230234,22.6142138 29.8186345,21.5235376 29.600483,20.3961542 C29.49159,19.8324625 29.4053526,19.2589579 29.3622339,18.67346 C29.3381167,18.3925227 29.3381167,18.0498011 29.3578489,17.7612316 C29.3746579,17.461759 29.4027947,17.171009 29.4429901,16.8838933 C29.5913477,15.7347036 29.8255773,14.6225845 30.1405632,13.5260933 C30.4515295,12.430329 30.7438597,11.3378356 30.9587224,10.2282606 C31.1739506,9.11941247 31.2565339,7.98039905 31.4231621,6.85810376 C31.593079,5.73689878 31.8996604,4.64658599 32.2208582,3.56172477 C32.5541147,2.47904418 32.9184313,1.40435921 33.4073536,0.363473939 L33.5136887,0.390731758 Z" id="Fill-25" fill="#FF0000"></path>
                    <path d="M32.8510126,31.0706798 C32.8733028,31.5282477 32.828357,31.9650997 32.7731797,32.3994076 C32.7443121,32.6163799 32.7085016,32.8311715 32.66721,33.0448728 C32.6328612,33.2596644 32.5776838,33.4700948 32.5115441,33.6783445 C32.3799955,34.094844 32.1797493,34.5004404 32.0869344,34.9274795 C31.9886384,35.3534284 31.9637903,35.7920976 31.9809647,36.2300399 L32.0335842,37.5213336 C32.0503932,37.9345622 32.1092246,38.3761389 32.1227449,38.8020877 C32.136996,39.2327613 32.1490546,39.6619811 32.1384576,40.1082824 C32.1322456,40.3303428 32.1227449,40.562216 32.0704909,40.8009945 C32.0207947,41.0415902 31.8939965,41.2796418 31.7149442,41.4279243 L31.6539203,41.3879462 C31.7938734,40.9616339 31.6583052,40.5989232 31.5654904,40.163525 C31.4660981,39.7386664 31.3864381,39.2970897 31.3436848,38.8544227 C31.2811992,37.9785381 31.3202984,37.0386885 31.5833956,36.1846102 C31.7039818,35.7535732 31.8022779,35.3254437 31.8541665,34.8885917 C31.9045935,34.4521032 31.873168,33.998533 31.9155558,33.5569564 C31.9601362,33.1157431 32.0829149,32.6908846 32.2214064,32.2711141 C32.3668406,31.8531609 32.5323726,31.4402958 32.7804879,31.051781 L32.8510126,31.0706798 Z" id="Fill-27" fill="#FF0000"></path>
                    <path d="M31.4115054,37.5950024 C31.5141864,38.4312723 31.4915308,39.2068482 31.4429309,39.9689768 C31.4188137,40.349496 31.3811762,40.724927 31.3409808,41.0967237 C31.3011508,41.4696106 31.2474351,41.8355923 31.1502353,42.1997568 C30.958759,42.923361 30.6503506,43.6684081 30.6700829,44.4272658 C30.6704483,44.6162533 30.6832377,44.804514 30.7285489,44.9851425 C30.7687443,45.1664979 30.8009006,45.3529413 30.8820223,45.5186689 C31.011013,45.8552121 31.226972,46.1815791 31.4527971,46.4901376 C31.6804492,46.7983327 31.9289299,47.0829043 32.1606017,47.37002 C32.4032358,47.6560454 32.6213872,47.9377095 32.8757145,48.2778871 C32.9995894,48.4432512 33.1395426,48.6496838 33.2637829,48.9088148 C33.380715,49.1763048 33.4841268,49.527749 33.4636637,49.8577503 C33.4687795,50.0318369 33.4369886,50.1659454 33.4132367,50.3207698 C33.3818112,50.4610567 33.3405196,50.5828083 33.3014204,50.7143727 C33.2601288,50.8317631 33.2075093,50.9386137 33.1600057,51.0505525 C33.1106749,51.1588569 33.0869231,51.2173704 33.0430736,51.3005976 C32.7361268,51.9217124 32.4591439,52.5624529 32.2176061,53.2526209 C31.9632787,53.9416986 31.7743603,54.6769328 31.5098015,55.4666827 L31.3274605,55.4775859 C30.6320799,53.9656855 30.6134439,52.1372309 31.2551087,50.5228411 L31.461567,50.0391057 L31.5207638,49.8755588 C31.5229563,49.8381247 31.5565743,49.7843359 31.5521894,49.7625297 C31.5733833,49.7025625 31.5711908,49.6680359 31.5602284,49.5720884 C31.5346495,49.4717796 31.486415,49.3365808 31.4020047,49.1730339 C31.2441464,48.8528454 31.0333032,48.4843197 30.8882343,48.095078 C30.7325684,47.7076535 30.627695,47.2980594 30.5388997,46.8950071 C30.447181,46.493772 30.3704444,46.0983518 30.290419,45.6851233 C30.2370687,45.4845058 30.2253755,45.2813441 30.1855455,45.0829072 C30.1446192,44.88338 30.1172133,44.6853065 30.0835953,44.4868696 C29.9524121,43.6993003 29.6688518,42.8815657 29.6326759,42.0591064 C29.6147707,41.6502391 29.6472924,41.243189 29.7349915,40.8492227 C29.8073432,40.4519854 29.9180633,40.063834 30.0496119,39.682588 C30.3200174,38.9233669 30.6726407,38.1877692 31.2375689,37.5390331 L31.4115054,37.5950024 Z" id="Fill-29" fill="#FF0000"></path>
                    <path d="M30.5031257,21.5075827 C30.4347936,23.08999 30.4110417,24.6640382 30.481201,26.2246392 C30.5246851,27.0042129 30.5791316,27.7812424 30.7059298,28.5422808 C30.8305356,29.274971 31.0062992,30.1130581 31.0289548,30.9224336 C31.069881,32.5437287 30.8681731,34.1268628 30.6215195,35.6892811 L30.2374706,38.0236407 C30.1720617,38.4117921 30.1194423,38.8003069 30.0774198,39.1891851 C30.0649958,39.3832608 30.0350319,39.580244 30.0441673,39.7735928 C30.0463597,39.8706306 30.0353974,39.9713028 30.0485522,40.0668869 L30.0931326,40.3590907 C29.9327164,39.9920188 29.8998292,39.5813343 29.8749811,39.1844604 C29.8563451,38.7850425 29.8665766,38.385988 29.8804623,37.9887507 C29.9188307,37.195003 29.9831433,36.4056166 30.0554951,35.6205914 C30.1866783,34.0516313 30.351114,32.4863055 30.2992254,30.9482376 C30.2798585,30.567355 30.2681653,30.1817478 30.2020256,29.813222 C30.1592723,29.4534188 30.0617071,29.0303775 30.0222425,28.6360477 C29.9301585,27.8335775 29.8895977,27.0314707 29.9129841,26.2326348 C29.9495254,24.6371438 30.1347896,23.051829 30.5031257,21.5075827" id="Fill-31" fill="#FF0000"></path>
                </g>
            </g>
        </g>
    </g>
</svg>