<?xml version="1.0" encoding="UTF-8"?>
<svg width="40px" height="47px" viewBox="0 0 40 47" version="1.1" xmlns="http://www.w3.org/2000/svg" xmlns:xlink="http://www.w3.org/1999/xlink">
    <!-- Generator: Sketch 42 (36781) - http://www.bohemiancoding.com/sketch -->
    <title>List</title>
    <desc>Created with Sketch.</desc>
    <defs>
        <polygon id="path-1" points="0 46.2769534 39.9104453 46.2769534 39.9104453 0.158617119 0 0.158617119"></polygon>
    </defs>
    <g id="Page-1" stroke="none" stroke-width="1" fill="none" fill-rule="evenodd">
        <g id="Main-Screen" transform="translate(-168.000000, -6.000000)">
            <g id="Top_Bar">
                <g id="List" transform="translate(168.000000, 6.000000)">
                    <polygon id="Fill-1" fill="#F1C9A2" points="0 46.2818591 39.9102834 46.2818591 39.9102834 0.163522803 0 0.163522803"></polygon>
                    <polygon id="Fill-2" fill="#D9A987" points="39.9102996 0.163473747 1.6194332e-05 46.28181 39.9102996 46.28181"></polygon>
                    <g id="Group-24" transform="translate(0.000000, 0.004906)">
                        <path d="M7.59405668,9.04091417 C7.59405668,10.0645669 6.77235628,10.8942816 5.75875304,10.8942816 C4.74498785,10.8942816 3.92328745,10.0645669 3.92328745,9.04091417 C3.92328745,8.01742494 4.74498785,7.18771024 5.75875304,7.18771024 C6.77235628,7.18771024 7.59405668,8.01742494 7.59405668,9.04091417 Z" id="Fill-3" fill="#402716"></path>
                        <path d="M7.59405668,18.3340786 C7.59405668,17.3105894 6.77235628,16.4808747 5.75875304,16.4808747 C4.74498785,16.4808747 3.92328745,17.3105894 3.92328745,18.3340786 C3.92328745,19.3577314 4.74498785,20.1874461 5.75875304,20.1874461 C6.77235628,20.1874461 7.59405668,19.3577314 7.59405668,18.3340786" id="Fill-5" fill="#402716"></path>
                        <path d="M7.59405668,27.6272594 C7.59405668,26.6037702 6.77235628,25.7740555 5.75875304,25.7740555 C4.74498785,25.7740555 3.92328745,26.6037702 3.92328745,27.6272594 C3.92328745,28.6509122 4.74498785,29.4806269 5.75875304,29.4806269 C6.77235628,29.4806269 7.59405668,28.6509122 7.59405668,27.6272594" id="Fill-7" fill="#402716"></path>
                        <path d="M7.59405668,36.9204239 C7.59405668,35.8969346 6.77235628,35.0672199 5.75875304,35.0672199 C4.74498785,35.0672199 3.92328745,35.8969346 3.92328745,36.9204239 C3.92328745,37.9440766 4.74498785,38.7736278 5.75875304,38.7736278 C6.77235628,38.7736278 7.59405668,37.9440766 7.59405668,36.9204239" id="Fill-9" fill="#402716"></path>
                        <mask id="mask-2" fill="white">
                            <use xlink:href="#path-1"></use>
                        </mask>
                        <g id="Clip-12"></g>
                        <polygon id="Fill-11" fill="#402716" mask="url(#mask-2)" points="9.86121457 9.04084876 35.8801619 9.04084876 35.8801619 8.05971194 9.86121457 8.05971194"></polygon>
                        <polyline id="Fill-13" fill="#402716" mask="url(#mask-2)" points="9.86126316 10.8942653 9.86126316 9.91312845 35.8802105 9.91312845 35.8802105 10.8942653"></polyline>
                        <polygon id="Fill-14" fill="#402716" mask="url(#mask-2)" points="9.86121457 18.3340132 35.8801619 18.3340132 35.8801619 17.3528764 9.86121457 17.3528764"></polygon>
                        <polygon id="Fill-15" fill="#402716" mask="url(#mask-2)" points="9.86121457 20.1873807 35.8801619 20.1873807 35.8801619 19.2062438 9.86121457 19.2062438"></polygon>
                        <polygon id="Fill-16" fill="#402716" mask="url(#mask-2)" points="9.86121457 22.0405846 35.8801619 22.0405846 35.8801619 21.0594478 9.86121457 21.0594478"></polygon>
                        <polygon id="Fill-17" fill="#402716" mask="url(#mask-2)" points="9.86121457 27.6271776 35.8801619 27.6271776 35.8801619 26.6460408 9.86121457 26.6460408"></polygon>
                        <polygon id="Fill-18" fill="#402716" mask="url(#mask-2)" points="9.86121457 29.4805451 35.8801619 29.4805451 35.8801619 28.4994083 9.86121457 28.4994083"></polygon>
                        <polygon id="Fill-19" fill="#402716" mask="url(#mask-2)" points="9.86121457 36.9205056 35.8801619 36.9205056 35.8801619 35.9393688 9.86121457 35.9393688"></polygon>
                        <polygon id="Fill-20" fill="#402716" mask="url(#mask-2)" points="9.86121457 38.7737095 35.8801619 38.7737095 35.8801619 37.7925727 9.86121457 37.7925727"></polygon>
                        <polygon id="Fill-21" fill="#402716" mask="url(#mask-2)" points="9.86121457 40.627077 35.8801619 40.627077 35.8801619 39.6459402 9.86121457 39.6459402"></polygon>
                        <polygon id="Fill-22" fill="#402716" mask="url(#mask-2)" points="9.86121457 42.4802809 35.8801619 42.4802809 35.8801619 41.4991441 9.86121457 41.4991441"></polygon>
                        <path d="M35.8801296,42.2906435 L9.86118219,42.2906435" id="Fill-23" fill="#402716" mask="url(#mask-2)"></path>
                    </g>
                </g>
            </g>
        </g>
    </g>
</svg>