<?xml version="1.0" encoding="UTF-8"?>
<svg width="68px" height="68px" viewBox="0 0 68 68" version="1.1" xmlns="http://www.w3.org/2000/svg" xmlns:xlink="http://www.w3.org/1999/xlink">
    <!-- Generator: Sketch 42 (36781) - http://www.bohemiancoding.com/sketch -->
    <title>Romance</title>
    <desc>Created with Sketch.</desc>
    <defs>
        <polygon id="path-1" points="0.000258695652 0.316843243 67.6813239 0.316843243 67.6813239 67.6324324 0.000258695652 67.6324324 0.000258695652 0.316843243"></polygon>
    </defs>
    <g id="Page-1" stroke="none" stroke-width="1" fill="none" fill-rule="evenodd">
        <g id="Filter-Feature" transform="translate(-154.000000, -234.000000)">
            <g id="Genres" transform="translate(19.000000, 141.000000)">
                <g id="Romance" transform="translate(135.000000, 93.000000)">
                    <g id="Group-3" transform="translate(0.000000, 0.050724)">
                        <mask id="mask-2" fill="white">
                            <use xlink:href="#path-1"></use>
                        </mask>
                        <g id="Clip-2"></g>
                        <path d="M33.9233891,0.317762162 C33.8956717,0.317762162 33.8683239,0.316659459 33.8406065,0.316659459 C15.1509543,0.316659459 0.000258695652,15.385827 0.000258695652,33.9744541 C0.000258695652,52.4664108 14.9942587,67.4727243 33.5493891,67.6289405 C33.6465848,67.6296757 33.7434109,67.6326162 33.8406065,67.6326162 C52.5306283,67.6326162 67.6813239,52.5634486 67.6813239,33.9744541 C67.6813239,15.4133946 52.5749761,0.362237838 33.9233891,0.317762162" id="Fill-1" fill="#F59AE9" mask="url(#mask-2)"></path>
                    </g>
                    <path d="M13.5769022,16.3833319 C10.971837,19.0217319 10.9744239,23.2671373 13.5769022,25.9081103 L25.1058587,37.6107265 C28.9534022,33.7145103 32.8009457,29.8179265 36.6484891,25.9217103 C39.2535543,23.2829427 39.2535543,19.0349643 36.6484891,16.3969319 C34.0430543,13.7585319 29.8484891,13.7585319 27.2434239,16.3969319 L25.119163,18.5479373 L22.9815978,16.3833319 C20.3765326,13.7449319 16.1819674,13.7449319 13.5769022,16.3833319" id="Fill-4" fill="#E1014A"></path>
                    <path d="M36.6153761,40.8263914 C34.557637,42.9104995 34.5594848,46.2641859 36.6153761,48.3504995 L45.7225717,57.5951914 C48.7622457,54.5171805 51.8011804,51.4391697 54.8408543,48.3611589 C56.8985935,46.2766832 56.8985935,42.9211589 54.8408543,40.8366832 C52.7831152,38.7525751 49.4695935,38.7525751 47.4111152,40.8366832 L45.7332891,42.5363157 L44.0447457,40.8263914 C41.9870065,38.7419157 38.6731152,38.7419157 36.6153761,40.8263914" id="Fill-6" fill="#E1014A"></path>
                </g>
            </g>
        </g>
    </g>
</svg>