<svg id="Layer_1" data-name="Layer 1" xmlns="http://www.w3.org/2000/svg" xmlns:xlink="http://www.w3.org/1999/xlink" width="67.68" height="66.51" viewBox="0 0 67.68 66.51">
  <defs>
    <style>
      .cls-1 {
        fill: #fff;
      }

      .cls-2 {
        mask: url(#mask);
      }

      .cls-3 {
        fill: #3f3f3f;
      }

      .cls-4 {
        mask: url(#mask-2-2);
      }

      .cls-5 {
        fill: #747474;
      }

      .cls-6 {
        fill: #1e1e1e;
      }
    </style>
    <mask id="mask" x="0" y="0" width="67.68" height="66.51" maskUnits="userSpaceOnUse">
      <g transform="translate(0 -0.36)">
        <g id="mask-2">
          <polygon id="path-1" class="cls-1" points="0 0.36 67.68 0.36 67.68 66.88 0 66.88 0 0.36"/>
        </g>
      </g>
    </mask>
    <mask id="mask-2-2" x="0" y="0" width="67.68" height="66.51" maskUnits="userSpaceOnUse">
      <g transform="translate(0 -0.36)">
        <g id="mask-4">
          <polygon id="path-3" class="cls-1" points="67.68 0.36 67.68 66.88 0 66.88 0 0.36 67.68 0.36"/>
        </g>
      </g>
    </mask>
  </defs>
  <title>sci-fi</title>
  <g id="Page-1">
    <g id="Filter-Feature">
      <g id="Genres">
        <g id="Sci-Fi">
          <g id="Group-3">
            <g class="cls-2">
              <path id="Fill-1" class="cls-3" d="M33.92.36h-.08C15.15.36,0,15.25,0,33.62s15,33.1,33.55,33.25h.29c18.69,0,33.84-14.89,33.84-33.26S52.58.41,33.92.36" transform="translate(0 -0.36)"/>
            </g>
          </g>
          <g id="Group-6">
            <g class="cls-4">
              <path id="Fill-4" class="cls-5" d="M33.92.36h0A34.85,34.85,0,0,0,18.4,4,33.2,33.2,0,0,0,0,33.62c0,.51,0,1,0,1.52a33.15,33.15,0,0,0,7.18,4.19c11.17,6.5,10.18,18.21,14.26,25.25a34.25,34.25,0,0,0,12.08,2.29h.29a34.25,34.25,0,0,0,12.79-2.46c4-7.06,3.08-18.64,14.17-25.08a33.67,33.67,0,0,0,6.84-3.93q0-.89,0-1.79C67.68,15.28,52.58.41,33.92.36" transform="translate(0 -0.36)"/>
            </g>
          </g>
          <path id="Fill-7" class="cls-6" d="M25.83,24.47S24.1,17.57,13,15.39c-6.28.85-6.41,15-1.85,17.55S29.4,40,28,33.45a78.48,78.48,0,0,0-2.22-9" transform="translate(0 -0.36)"/>
          <path id="Fill-9" class="cls-6" d="M43.37,24.47s1.72-6.9,12.81-9.08c6.28.85,6.41,15,1.85,17.55S39.8,40,41.15,33.45a78.48,78.48,0,0,1,2.22-9" transform="translate(0 -0.36)"/>
        </g>
      </g>
    </g>
  </g>
</svg>
