<?xml version="1.0" encoding="UTF-8"?>
<svg width="68px" height="67px" viewBox="0 0 68 67" version="1.1" xmlns="http://www.w3.org/2000/svg" xmlns:xlink="http://www.w3.org/1999/xlink">
    <!-- Generator: Sketch 42 (36781) - http://www.bohemiancoding.com/sketch -->
    <title>Sci-Fi</title>
    <desc>Created with Sketch.</desc>
    <defs>
        <polygon id="path-1" points="0.000110869565 0.3130713 67.6814348 0.3130713 67.6814348 66.8272844 0.000110869565 66.8272844 0.000110869565 0.3130713"></polygon>
        <polygon id="path-3" points="67.6814348 0.314015598 67.6814348 66.8272844 7.39130435e-05 66.8272844 7.39130435e-05 0.314015598 67.6814348 0.314015598"></polygon>
    </defs>
    <g id="Page-1" stroke="none" stroke-width="1" fill="none" fill-rule="evenodd">
        <g id="Filter-Feature" transform="translate(-287.000000, -327.000000)">
            <g id="Genres" transform="translate(19.000000, 141.000000)">
                <g id="Sci-Fi" transform="translate(268.000000, 186.000000)">
                    <g id="Group-3" transform="translate(0.000000, 0.050120)">
                        <mask id="mask-2" fill="white">
                            <use xlink:href="#path-1"></use>
                        </mask>
                        <g id="Clip-2"></g>
                        <path d="M33.9232413,0.314015598 C33.8958935,0.314015598 33.8685457,0.312926023 33.8408283,0.312926023 C15.1511761,0.312926023 0.000110869565,15.2026987 0.000110869565,33.5700326 C0.000110869565,51.841847 14.9941109,66.6695139 33.5492413,66.8235072 C33.6468065,66.8245968 33.7436326,66.8275023 33.8408283,66.8275023 C52.5304804,66.8275023 67.6815457,51.9377296 67.6815457,33.5700326 C67.6815457,15.2295749 52.5751978,0.357961802 33.9232413,0.314015598" id="Fill-1" fill="#006A00" mask="url(#mask-2)"></path>
                    </g>
                    <g id="Group-6" transform="translate(0.000000, 0.050120)">
                        <mask id="mask-4" fill="white">
                            <use xlink:href="#path-3"></use>
                        </mask>
                        <g id="Clip-5"></g>
                        <path d="M33.9235739,0.314015598 L33.9224652,0.314015598 C28.3339,0.32672731 23.0587261,1.64329745 18.3977696,3.97026708 C7.4737913,9.48606039 7.39130435e-05,20.6701875 7.39130435e-05,33.5700326 C7.39130435e-05,34.0799538 0.0133782609,34.5862431 0.0366608696,35.0903533 C1.97835652,36.6110372 4.34172609,38.0253059 7.21435652,39.284855 C18.3815087,45.7805397 17.3940304,57.4905685 21.4714435,64.5306776 C25.2177261,65.9776336 29.2892261,66.7882776 33.5495739,66.8235072 C33.6467696,66.8245968 33.7435957,66.8275023 33.8407913,66.8275023 C38.3661174,66.8275023 42.6833783,65.9522102 46.6292261,64.3679677 C50.5987261,57.3111518 49.7121391,45.7307824 60.7942913,39.284855 C63.4991391,38.0983075 65.7571826,36.7762895 67.6327261,35.3558465 C67.6645087,34.7645703 67.6815087,34.169299 67.6815087,33.5700326 C67.6815087,15.2295749 52.5751609,0.357961802 33.9235739,0.314015598" id="Fill-4" fill="#00C500" mask="url(#mask-4)"></path>
                    </g>
                    <path d="M25.8296152,24.4681564 C25.8296152,24.4681564 24.1048543,17.5675129 13.0178978,15.3883624 C6.73528913,16.2356888 6.61222391,30.4001675 11.1700717,32.9425099 C15.7282891,35.4848522 29.4022022,40.0153063 28.0470065,33.4524311 C26.6918109,26.8895559 25.8296152,24.4681564 25.8296152,24.4681564" id="Fill-7" fill="#1E1E1E"></path>
                    <path d="M43.3691435,24.4681564 C43.3691435,24.4681564 45.0939043,17.5675129 56.1808609,15.3883624 C62.4634696,16.2356888 62.5865348,30.4001675 58.028687,32.9425099 C53.4708391,35.4848522 39.7969261,40.0153063 41.1517522,33.4524311 C42.5069478,26.8895559 43.3691435,24.4681564 43.3691435,24.4681564" id="Fill-9" fill="#1E1E1E"></path>
                </g>
            </g>
        </g>
    </g>
</svg>