<svg id="Layer_1" data-name="Layer 1" xmlns="http://www.w3.org/2000/svg" width="47.52" height="44.01" viewBox="0 0 47.52 44.01">
  <defs>
    <style>
      .cls-1 {
        fill: #fdcc4c;
      }
    </style>
  </defs>
  <title>star_full</title>
  <path class="cls-1" d="M0,17a26.41,26.41,0,0,1,4.48-1.71c3-.52,6-.78,8.92-1.11,1.89-.21,3.26-.79,4.11-2.81C18.89,8,20.66,4.86,22.34,1.68A7.82,7.82,0,0,1,24,0a7.33,7.33,0,0,1,1.48,1.61q2.6,5,5,10.15a4.15,4.15,0,0,0,3.85,2.45c3.75.35,7.47,1,11.19,1.57.52.08,1,.6,2,1.26-2.48,2.38-4.76,4.55-7,6.74A35.69,35.69,0,0,0,37,27.31a3.56,3.56,0,0,0-.56,2.49c.69,4.2,1.65,8.4,2.26,12.6.25,1.75-.88,1.94-2.35,1.19Q30.8,40.72,25.12,38a2.9,2.9,0,0,0-2.2-.16c-3.49,1.78-7,3.77-10.54,5.57a8.61,8.61,0,0,1-2.87.3,12.46,12.46,0,0,1-.13-2.37c.52-3.82,1.24-7.61,1.68-11.44a3.93,3.93,0,0,0-1-2.79C7,23.82,3.71,20.68,0,17Z"/>
</svg>
