<svg id="Layer_1" data-name="Layer 1" xmlns="http://www.w3.org/2000/svg" width="47.65" height="44" viewBox="0 0 47.65 44">
  <defs>
    <style>
      .cls-1 {
        fill: #ddd;
      }
    </style>
  </defs>
  <title>star</title>
  <path class="cls-1" d="M1,17.55a26.41,26.41,0,0,1,4.48-1.71c3-.52,6-.78,8.92-1.11,1.89-.21,3.26-.79,4.11-2.81,1.38-3.32,3.15-6.49,4.83-9.67A7.82,7.82,0,0,1,25,.57a7.33,7.33,0,0,1,1.48,1.61q2.6,5,5,10.15a4.15,4.15,0,0,0,3.85,2.45c3.75.35,7.47,1,11.19,1.57.52.08,1,.6,2,1.26-2.48,2.38-4.76,4.55-7,6.74a35.69,35.69,0,0,0-3.49,3.53,3.56,3.56,0,0,0-.56,2.49c.69,4.2,1.65,8.4,2.26,12.6.25,1.75-.88,1.94-2.35,1.19q-5.58-2.87-11.26-5.57a2.9,2.9,0,0,0-2.2-.16C20.43,40.21,16.95,42.2,13.38,44a8.61,8.61,0,0,1-2.87.3,12.46,12.46,0,0,1-.13-2.37c.52-3.82,1.24-7.61,1.68-11.44a3.93,3.93,0,0,0-1-2.79C8,24.39,4.71,21.25,1,17.55Z" transform="translate(-1 -0.57)"/>
</svg>
